<?xml version="1.0" standalone="no"?>
<!DOCTYPE svg PUBLIC "-//W3C//DTD SVG 1.1//EN" "http://www.w3.org/Graphics/SVG/1.1/DTD/svg11.dtd" >
<svg xmlns="http://www.w3.org/2000/svg" xmlns:xlink="http://www.w3.org/1999/xlink" version="1.1">
<metadata>
Created by FontForge 20200314 at Mon Jun 24 22:34:25 2019
 By www-data
Copyright \(c\) 2019 by Daler Mukhiddinov.
</metadata>
<defs>
<font id="Floane-Regular" horiz-adv-x="0" >
  <font-face 
    font-family="Floane"
    font-weight="400"
    font-stretch="normal"
    units-per-em="1000"
    panose-1="0 0 5 0 0 0 0 0 0 0"
    ascent="800"
    descent="-200"
    x-height="459"
    cap-height="683"
    bbox="-589 -322 1195 1165"
    underline-thickness="50"
    underline-position="-100"
    stemh="24"
    stemv="108"
    unicode-range="U+0020-FB02"
  />
<missing-glyph horiz-adv-x="567" 
d="M497 700v-700h-427v700h427zM283 371l186 309h-371zM477 47v605l-181 -302zM91 650v-601l180 301zM99 21h370l-185 308z" />
    <glyph glyph-name=".notdef" horiz-adv-x="567" 
d="M497 700v-700h-427v700h427zM283 371l186 309h-371zM477 47v605l-181 -302zM91 650v-601l180 301zM99 21h370l-185 308z" />
    <glyph glyph-name="A" unicode="A" horiz-adv-x="531" 
d="M337 144h-228l-44 -144h-34l175 572l40 126h37l215 -698h-117zM328 171l-105 348l-106 -348h211z" />
    <glyph glyph-name="Aacute" unicode="&#xc1;" horiz-adv-x="531" 
d="M245 933h97v-17c-30 -56 -76 -95 -138 -115l-13 18c33 24 54 68 54 114zM337 144h-228l-44 -144h-34l175 572l40 126h37l215 -698h-117zM328 171l-105 348l-106 -348h211z" />
    <glyph glyph-name="Abreve" unicode="&#x102;" horiz-adv-x="531" 
d="M139 922l9 4c23 -36 77 -66 119 -66s96 30 119 66l9 -4l3 -4c-3 -20 -22 -128 -131 -128s-128 108 -131 128zM337 144h-228l-44 -144h-34l175 572l40 126h37l215 -698h-117zM328 171l-105 348l-106 -348h211z" />
    <glyph glyph-name="uni01CD" unicode="&#x1cd;" horiz-adv-x="531" 
d="M305 781h-74l-4 2c-9 18 -40 93 -114 131l6 12c62 -13 109 -36 148 -71c39 35 86 58 148 71l6 -12c-66 -34 -98 -97 -111 -123zM337 144h-228l-44 -144h-34l175 572l40 126h37l215 -698h-117zM328 171l-105 348l-106 -348h211z" />
    <glyph glyph-name="Acircumflex" unicode="&#xc2;" horiz-adv-x="531" 
d="M113 783c72 37 116 127 118 133h72c2 -6 46 -96 118 -133l-6 -12c-62 13 -109 36 -148 71c-39 -35 -86 -58 -148 -71zM337 144h-228l-44 -144h-34l175 572l40 126h37l215 -698h-117zM328 171l-105 348l-106 -348h211z" />
    <glyph glyph-name="Adieresis" unicode="&#xc4;" horiz-adv-x="531" 
d="M147 806c-33 0 -60 26 -60 59s27 59 60 59s59 -26 59 -59s-26 -59 -59 -59zM387 806c-33 0 -59 26 -59 59s26 59 59 59s60 -26 60 -59s-27 -59 -60 -59zM337 144h-228l-44 -144h-34l175 572l40 126h37l215 -698h-117zM328 171l-105 348l-106 -348h211z" />
    <glyph glyph-name="Agrave" unicode="&#xc0;" horiz-adv-x="531" 
d="M289 933c0 -40 17 -87 54 -114l-13 -17c-77 24 -116 72 -139 114v17h98zM337 144h-228l-44 -144h-34l175 572l40 126h37l215 -698h-117zM328 171l-105 348l-106 -348h211z" />
    <glyph glyph-name="Amacron" unicode="&#x100;" horiz-adv-x="531" 
d="M390 862h-247v54h247v-54zM337 144h-228l-44 -144h-34l175 572l40 126h37l215 -698h-117zM328 171l-105 348l-106 -348h211z" />
    <glyph glyph-name="Aogonek" unicode="&#x104;" horiz-adv-x="531" 
d="M406 -182c25 0 45 21 56 33l8 -4c-8 -19 -33 -73 -85 -73c-62 0 -96 34 -96 94c0 74 60 126 88 146l-40 130h-228l-44 -144h-34l175 572l40 126h37l215 -698h-114c-16 -25 -40 -69 -40 -109c0 -46 22 -73 62 -73zM117 171h211l-105 348z" />
    <glyph glyph-name="Aring" unicode="&#xc5;" horiz-adv-x="531" 
d="M267 935c40 0 72 -32 72 -72s-32 -73 -72 -73s-73 33 -73 73s33 72 73 72zM267 816c25 0 46 21 46 47c0 25 -21 46 -46 46s-46 -21 -46 -46c0 -26 20 -47 46 -47zM337 144h-228l-44 -144h-34l175 572l40 126h37l215 -698h-117zM328 171l-105 348l-106 -348h211z" />
    <glyph glyph-name="Atilde" unicode="&#xc3;" horiz-adv-x="531" 
d="M398 923c0 -97 -20 -132 -77 -132c-23 0 -40 14 -55 27c-16 13 -30 25 -52 25c-36 0 -62 -21 -62 -49h-16c0 96 21 132 78 132c22 0 38 -13 54 -26s31 -26 53 -26c36 0 61 21 61 49h16zM337 144h-228l-44 -144h-34l175 572l40 126h37l215 -698h-117zM328 171l-105 348
l-106 -348h211z" />
    <glyph glyph-name="AE" unicode="&#xc6;" horiz-adv-x="767" 
d="M21 0l415 683h304v-23h-267v-307h249v-23h-249v-307h267v-23h-384v144h-206l-88 -144h-41zM161 171h195v322z" />
    <glyph glyph-name="B" unicode="B" horiz-adv-x="543" 
d="M292 341c141 -21 214 -80 214 -172c0 -155 -125 -169 -328 -169h-108v683h108c225 0 299 -43 299 -175c0 -89 -63 -146 -185 -167zM178 349c39 0 180 17 180 159c0 115 -50 159 -180 159v-318zM178 16c152 -1 209 39 209 153c0 143 -169 165 -209 166v-319z" />
    <glyph glyph-name="C" unicode="C" horiz-adv-x="504" 
d="M328 18c59 0 105 19 144 60l11 -12c-50 -54 -111 -82 -177 -82c-170 0 -273 135 -273 357s103 357 273 357c66 0 127 -28 177 -82l-11 -12c-39 41 -85 60 -144 60c-99 0 -184 -154 -184 -329c0 -178 80 -317 184 -317z" />
    <glyph glyph-name="Cacute" unicode="&#x106;" horiz-adv-x="504" 
d="M234 933h97v-17c-30 -56 -76 -95 -138 -115l-13 18c33 24 54 68 54 114zM328 18c59 0 105 19 144 60l11 -12c-50 -54 -111 -82 -177 -82c-170 0 -273 135 -273 357s103 357 273 357c66 0 127 -28 177 -82l-11 -12c-39 41 -85 60 -144 60c-99 0 -184 -154 -184 -329
c0 -178 80 -317 184 -317z" />
    <glyph glyph-name="Ccaron" unicode="&#x10c;" horiz-adv-x="504" 
d="M294 781h-74l-4 2c-9 18 -40 93 -114 131l6 12c62 -13 109 -36 148 -71c39 35 86 58 148 71l6 -12c-66 -34 -98 -97 -111 -123zM328 18c59 0 105 19 144 60l11 -12c-50 -54 -111 -82 -177 -82c-170 0 -273 135 -273 357s103 357 273 357c66 0 127 -28 177 -82l-11 -12
c-39 41 -85 60 -144 60c-99 0 -184 -154 -184 -329c0 -178 80 -317 184 -317z" />
    <glyph glyph-name="Ccedilla" unicode="&#xc7;" horiz-adv-x="504" 
d="M328 18c59 0 105 19 144 60l11 -12c-50 -54 -111 -82 -177 -82h-13c27 -27 54 -66 54 -116c0 -60 -34 -94 -96 -94c-52 0 -77 54 -85 73l8 4c11 -12 31 -33 56 -33c40 0 62 27 62 73c0 34 -18 71 -32 97c-143 22 -227 152 -227 353c0 222 103 357 273 357
c66 0 127 -28 177 -82l-11 -12c-39 41 -85 60 -144 60c-99 0 -184 -154 -184 -329c0 -178 80 -317 184 -317z" />
    <glyph glyph-name="Cdotaccent" unicode="&#x10a;" horiz-adv-x="504" 
d="M255 806c-33 0 -59 26 -59 59s26 59 59 59s60 -26 60 -59s-27 -59 -60 -59zM328 18c59 0 105 19 144 60l11 -12c-50 -54 -111 -82 -177 -82c-170 0 -273 135 -273 357s103 357 273 357c66 0 127 -28 177 -82l-11 -12c-39 41 -85 60 -144 60c-99 0 -184 -154 -184 -329
c0 -178 80 -317 184 -317z" />
    <glyph glyph-name="D" unicode="D" horiz-adv-x="610" 
d="M178 683c124 0 399 -26 399 -342c0 -315 -275 -341 -399 -341h-108v683h108zM443 341c0 294 -209 314 -265 316v-631c60 2 265 25 265 315z" />
    <glyph glyph-name="Eth" unicode="&#xd0;" horiz-adv-x="610" 
d="M178 683c124 0 399 -26 399 -342c0 -315 -275 -341 -399 -341h-108v683h108zM443 346c-2 289 -209 309 -265 311v-311h265zM178 26c59 2 255 24 265 294h-265v-294z" />
    <glyph glyph-name="Dcaron" unicode="&#x10e;" horiz-adv-x="610" 
d="M346 781h-74l-4 2c-9 18 -40 93 -114 131l6 12c62 -13 109 -36 148 -71c39 35 86 58 148 71l6 -12c-66 -34 -98 -97 -111 -123zM178 683c124 0 399 -26 399 -342c0 -315 -275 -341 -399 -341h-108v683h108zM443 341c0 294 -209 314 -265 316v-631c60 2 265 25 265 315z
" />
    <glyph glyph-name="Dcroat" unicode="&#x110;" horiz-adv-x="610" 
d="M178 683c124 0 399 -26 399 -342c0 -315 -275 -341 -399 -341h-108v683h108zM443 346c-2 289 -209 309 -265 311v-311h265zM178 26c59 2 255 24 265 294h-265v-294z" />
    <glyph glyph-name="E" unicode="E" horiz-adv-x="481" 
d="M179 660v-307h249v-23h-249v-307h267v-23h-376v683h376v-23h-267z" />
    <glyph glyph-name="Eacute" unicode="&#xc9;" horiz-adv-x="481" 
d="M215 933h97v-17c-30 -56 -76 -95 -138 -115l-13 18c33 24 54 68 54 114zM179 660v-307h249v-23h-249v-307h267v-23h-376v683h376v-23h-267z" />
    <glyph glyph-name="Ecaron" unicode="&#x11a;" horiz-adv-x="481" 
d="M275 781h-74l-4 2c-9 18 -40 93 -114 131l6 12c62 -13 109 -36 148 -71c39 35 86 58 148 71l6 -12c-66 -34 -98 -97 -111 -123zM179 660v-307h249v-23h-249v-307h267v-23h-376v683h376v-23h-267z" />
    <glyph glyph-name="Ecircumflex" unicode="&#xca;" horiz-adv-x="481" 
d="M83 783c72 37 116 127 118 133h72c2 -6 46 -96 118 -133l-6 -12c-62 13 -109 36 -148 71c-39 -35 -86 -58 -148 -71zM179 660v-307h249v-23h-249v-307h267v-23h-376v683h376v-23h-267z" />
    <glyph glyph-name="Edieresis" unicode="&#xcb;" horiz-adv-x="481" 
d="M117 806c-33 0 -60 26 -60 59s27 59 60 59s59 -26 59 -59s-26 -59 -59 -59zM357 806c-33 0 -59 26 -59 59s26 59 59 59s60 -26 60 -59s-27 -59 -60 -59zM179 660v-307h249v-23h-249v-307h267v-23h-376v683h376v-23h-267z" />
    <glyph glyph-name="Edotaccent" unicode="&#x116;" horiz-adv-x="481" 
d="M236 806c-33 0 -59 26 -59 59s26 59 59 59s60 -26 60 -59s-27 -59 -60 -59zM179 660v-307h249v-23h-249v-307h267v-23h-376v683h376v-23h-267z" />
    <glyph glyph-name="Egrave" unicode="&#xc8;" horiz-adv-x="481" 
d="M259 933c0 -40 17 -87 54 -114l-13 -17c-77 24 -116 72 -139 114v17h98zM179 660v-307h249v-23h-249v-307h267v-23h-376v683h376v-23h-267z" />
    <glyph glyph-name="Emacron" unicode="&#x112;" horiz-adv-x="481" 
d="M360 862h-247v54h247v-54zM179 660v-307h249v-23h-249v-307h267v-23h-376v683h376v-23h-267z" />
    <glyph glyph-name="Eogonek" unicode="&#x118;" horiz-adv-x="481" 
d="M446 660h-267v-307h249v-23h-249v-307h267v-23h-108c-16 -25 -40 -69 -40 -109c0 -46 22 -73 62 -73c25 0 45 21 56 33l8 -4c-8 -19 -33 -73 -85 -73c-62 0 -96 34 -96 94s41 106 70 132h-243v683h376v-23z" />
    <glyph glyph-name="F" unicode="F" horiz-adv-x="438" 
d="M178 660v-307h207v-23h-207v-330h-108v683h333v-23h-225z" />
    <glyph glyph-name="G" unicode="G" horiz-adv-x="581" 
d="M248 350h300v-8c0 -223 -97 -357 -257 -357s-258 135 -258 357c0 216 102 357 258 357c68 0 116 -23 173 -82l-14 -14c-40 39 -69 63 -134 63c-114 0 -178 -118 -178 -324c0 -189 62 -323 153 -323c89 0 150 129 152 312h-195v19z" />
    <glyph glyph-name="Gbreve" unicode="&#x11e;" horiz-adv-x="581" 
d="M163 922l9 4c23 -36 77 -66 119 -66s96 30 119 66l9 -4l3 -4c-3 -20 -22 -128 -131 -128s-128 108 -131 128zM248 350h300v-8c0 -223 -97 -357 -257 -357s-258 135 -258 357c0 216 102 357 258 357c68 0 116 -23 173 -82l-14 -14c-40 39 -69 63 -134 63
c-114 0 -178 -118 -178 -324c0 -189 62 -323 153 -323c89 0 150 129 152 312h-195v19z" />
    <glyph glyph-name="uni0122" unicode="&#x122;" horiz-adv-x="581" 
d="M248 350h300v-8c0 -223 -97 -357 -257 -357s-258 135 -258 357c0 216 102 357 258 357c68 0 116 -23 173 -82l-14 -14c-40 39 -69 63 -134 63c-114 0 -178 -118 -178 -324c0 -189 62 -323 153 -323c89 0 150 129 152 312h-195v19zM360 -131c-1 -41 -52 -144 -86 -191
l-6 4c12 21 18 53 17 84c-1 27 -35 49 -43 57c-21 26 -26 54 -14 80c16 34 57 49 93 33c27 -12 40 -34 39 -67z" />
    <glyph glyph-name="Gdotaccent" unicode="&#x120;" horiz-adv-x="581" 
d="M290 806c-33 0 -59 26 -59 59s26 59 59 59s60 -26 60 -59s-27 -59 -60 -59zM248 350h300v-8c0 -223 -97 -357 -257 -357s-258 135 -258 357c0 216 102 357 258 357c68 0 116 -23 173 -82l-14 -14c-40 39 -69 63 -134 63c-114 0 -178 -118 -178 -324
c0 -189 62 -323 153 -323c89 0 150 129 152 312h-195v19z" />
    <glyph glyph-name="H" unicode="H" horiz-adv-x="591" 
d="M521 683v-683h-109v330h-234v-330h-108v683h108v-330h234v330h109z" />
    <glyph glyph-name="Hbar" unicode="&#x126;" horiz-adv-x="591" 
d="M565 359v-26h-44v-333h-109v330h-234v-330h-108v333h-44v26h44v324h108v-324h234v324h109v-324h44z" />
    <glyph glyph-name="I" unicode="I" horiz-adv-x="253" 
d="M178 683v-683h-103v683h103z" />
    <glyph glyph-name="Iacute" unicode="&#xcd;" horiz-adv-x="253" 
d="M105 933h97v-17c-30 -56 -76 -95 -138 -115l-13 18c33 24 54 68 54 114zM178 683v-683h-103v683h103z" />
    <glyph glyph-name="uni01CF" unicode="&#x1cf;" horiz-adv-x="253" 
d="M165 781h-74l-4 2c-9 18 -40 93 -114 131l6 12c62 -13 109 -36 148 -71c39 35 86 58 148 71l6 -12c-66 -34 -98 -97 -111 -123zM178 683v-683h-103v683h103z" />
    <glyph glyph-name="Icircumflex" unicode="&#xce;" horiz-adv-x="253" 
d="M-27 783c72 37 116 127 118 133h72c2 -6 46 -96 118 -133l-6 -12c-62 13 -109 36 -148 71c-39 -35 -86 -58 -148 -71zM178 683v-683h-103v683h103z" />
    <glyph glyph-name="Idieresis" unicode="&#xcf;" horiz-adv-x="253" 
d="M7 806c-33 0 -60 26 -60 59s27 59 60 59s59 -26 59 -59s-26 -59 -59 -59zM247 806c-33 0 -59 26 -59 59s26 59 59 59s60 -26 60 -59s-27 -59 -60 -59zM178 683v-683h-103v683h103z" />
    <glyph glyph-name="Idotaccent" unicode="&#x130;" horiz-adv-x="253" 
d="M126 806c-33 0 -59 26 -59 59s26 59 59 59s60 -26 60 -59s-27 -59 -60 -59zM178 683v-683h-103v683h103z" />
    <glyph glyph-name="Igrave" unicode="&#xcc;" horiz-adv-x="253" 
d="M149 933c0 -40 17 -87 54 -114l-13 -17c-77 24 -116 72 -139 114v17h98zM178 683v-683h-103v683h103z" />
    <glyph glyph-name="Imacron" unicode="&#x12a;" horiz-adv-x="253" 
d="M250 862h-247v54h247v-54zM178 683v-683h-103v683h103z" />
    <glyph glyph-name="Iogonek" unicode="&#x12e;" horiz-adv-x="253" 
d="M215 -149l8 -4c-8 -19 -33 -73 -85 -73c-62 0 -96 34 -96 94s41 106 70 132h-37v683h103v-683h-41c-16 -25 -40 -69 -40 -109c0 -46 22 -73 62 -73c25 0 45 21 56 33z" />
    <glyph glyph-name="J" unicode="J" horiz-adv-x="445" 
d="M375 683v-453c0 -153 -76 -245 -201 -245c-61 0 -111 19 -149 56l8 8c25 -24 67 -41 108 -41c83 0 126 77 126 222v433h-188v20h296z" />
    <glyph glyph-name="K" unicode="K" horiz-adv-x="557" 
d="M286 381l250 -381h-119l-200 301l-39 -45v-256h-108v683h108v-383l326 384l33 -1z" />
    <glyph glyph-name="uni0136" unicode="&#x136;" horiz-adv-x="557" 
d="M286 381l250 -381h-119l-200 301l-39 -45v-256h-108v683h108v-383l326 384l33 -1zM348 -131c-1 -41 -52 -144 -86 -191l-6 4c12 21 18 53 17 84c-1 27 -35 49 -43 57c-21 26 -26 54 -14 80c16 34 57 49 93 33c27 -12 40 -34 39 -67z" />
    <glyph glyph-name="L" unicode="L" horiz-adv-x="479" 
d="M444 23v-23h-374v683h108v-660h266z" />
    <glyph glyph-name="Lacute" unicode="&#x139;" horiz-adv-x="479" 
d="M213 933h97v-17c-30 -56 -76 -95 -138 -115l-13 18c33 24 54 68 54 114zM444 23v-23h-374v683h108v-660h266z" />
    <glyph glyph-name="Lcaron" unicode="&#x13d;" horiz-adv-x="479" 
d="M273 781h-74l-4 2c-9 18 -40 93 -114 131l6 12c62 -13 109 -36 148 -71c39 35 86 58 148 71l6 -12c-66 -34 -98 -97 -111 -123zM444 23v-23h-374v683h108v-660h266z" />
    <glyph glyph-name="uni013B" unicode="&#x13b;" horiz-adv-x="479" 
d="M444 23v-23h-374v683h108v-660h266zM304 -131c-1 -41 -52 -144 -86 -191l-6 4c12 21 18 53 17 84c-1 27 -35 49 -43 57c-21 26 -26 54 -14 80c16 34 57 49 93 33c27 -12 40 -34 39 -67z" />
    <glyph glyph-name="Lslash" unicode="&#x141;" horiz-adv-x="479" 
d="M178 23h266v-23h-374v132l-13 -16l-17 17l30 36v514h108v-382l226 274l18 -16l-244 -296v-240z" />
    <glyph glyph-name="M" unicode="M" horiz-adv-x="767" 
d="M697 683v-683h-109v630l-181 -630h-128l-179 623v-623h-30v683h121l192 -667l192 667h122z" />
    <glyph glyph-name="N" unicode="N" horiz-adv-x="562" 
d="M502 683v-683h-139l-273 642v-642h-30v683h137l275 -648v648h30z" />
    <glyph glyph-name="Nacute" unicode="&#x143;" horiz-adv-x="562" 
d="M259 933h97v-17c-30 -56 -76 -95 -138 -115l-13 18c33 24 54 68 54 114zM502 683v-683h-139l-273 642v-642h-30v683h137l275 -648v648h30z" />
    <glyph glyph-name="Ncaron" unicode="&#x147;" horiz-adv-x="562" 
d="M319 781h-74l-4 2c-9 18 -40 93 -114 131l6 12c62 -13 109 -36 148 -71c39 35 86 58 148 71l6 -12c-66 -34 -98 -97 -111 -123zM502 683v-683h-139l-273 642v-642h-30v683h137l275 -648v648h30z" />
    <glyph glyph-name="uni0145" unicode="&#x145;" horiz-adv-x="562" 
d="M502 683v-683h-139l-273 642v-642h-30v683h137l275 -648v648h30zM350 -131c-1 -41 -52 -144 -86 -191l-6 4c12 21 18 53 17 84c-1 27 -35 49 -43 57c-21 26 -26 54 -14 80c16 34 57 49 93 33c27 -12 40 -34 39 -67z" />
    <glyph glyph-name="Eng" unicode="&#x14a;" horiz-adv-x="600" 
d="M472 683h30v-683c0 -104 -53 -235 -196 -235v30c124 0 88 134 57 205l-273 642v-642h-30v683h137l275 -648v648z" />
    <glyph glyph-name="Ntilde" unicode="&#xd1;" horiz-adv-x="562" 
d="M412 923c0 -97 -20 -132 -77 -132c-23 0 -40 14 -55 27c-16 13 -30 25 -52 25c-36 0 -62 -21 -62 -49h-16c0 96 21 132 78 132c22 0 38 -13 54 -26s31 -26 53 -26c36 0 61 21 61 49h16zM502 683v-683h-139l-273 642v-642h-30v683h137l275 -648v648h30z" />
    <glyph glyph-name="O" unicode="O" horiz-adv-x="581" 
d="M291 699c160 0 257 -134 257 -357s-97 -357 -257 -357s-258 135 -258 357s98 357 258 357zM291 19c91 0 152 134 152 323s-61 323 -152 323s-153 -134 -153 -323s62 -323 153 -323z" />
    <glyph glyph-name="Oacute" unicode="&#xd3;" horiz-adv-x="581" 
d="M269 933h97v-17c-30 -56 -76 -95 -138 -115l-13 18c33 24 54 68 54 114zM291 699c160 0 257 -134 257 -357s-97 -357 -257 -357s-258 135 -258 357s98 357 258 357zM291 19c91 0 152 134 152 323s-61 323 -152 323s-153 -134 -153 -323s62 -323 153 -323z" />
    <glyph glyph-name="uni01D1" unicode="&#x1d1;" horiz-adv-x="581" 
d="M329 781h-74l-4 2c-9 18 -40 93 -114 131l6 12c62 -13 109 -36 148 -71c39 35 86 58 148 71l6 -12c-66 -34 -98 -97 -111 -123zM291 699c160 0 257 -134 257 -357s-97 -357 -257 -357s-258 135 -258 357s98 357 258 357zM291 19c91 0 152 134 152 323s-61 323 -152 323
s-153 -134 -153 -323s62 -323 153 -323z" />
    <glyph glyph-name="Ocircumflex" unicode="&#xd4;" horiz-adv-x="581" 
d="M137 783c72 37 116 127 118 133h72c2 -6 46 -96 118 -133l-6 -12c-62 13 -109 36 -148 71c-39 -35 -86 -58 -148 -71zM291 699c160 0 257 -134 257 -357s-97 -357 -257 -357s-258 135 -258 357s98 357 258 357zM291 19c91 0 152 134 152 323s-61 323 -152 323
s-153 -134 -153 -323s62 -323 153 -323z" />
    <glyph glyph-name="Odieresis" unicode="&#xd6;" horiz-adv-x="581" 
d="M171 806c-33 0 -60 26 -60 59s27 59 60 59s59 -26 59 -59s-26 -59 -59 -59zM411 806c-33 0 -59 26 -59 59s26 59 59 59s60 -26 60 -59s-27 -59 -60 -59zM291 699c160 0 257 -134 257 -357s-97 -357 -257 -357s-258 135 -258 357s98 357 258 357zM291 19
c91 0 152 134 152 323s-61 323 -152 323s-153 -134 -153 -323s62 -323 153 -323z" />
    <glyph glyph-name="Ograve" unicode="&#xd2;" horiz-adv-x="581" 
d="M313 933c0 -40 17 -87 54 -114l-13 -17c-77 24 -116 72 -139 114v17h98zM291 699c160 0 257 -134 257 -357s-97 -357 -257 -357s-258 135 -258 357s98 357 258 357zM291 19c91 0 152 134 152 323s-61 323 -152 323s-153 -134 -153 -323s62 -323 153 -323z" />
    <glyph glyph-name="Ohungarumlaut" unicode="&#x150;" horiz-adv-x="581" 
d="M298 897c-30 -62 -76 -104 -138 -126l-14 19c34 28 55 76 55 126h97v-19zM435 916v-19c-30 -62 -76 -104 -138 -126l-14 19c34 27 55 75 55 126h97zM291 699c160 0 257 -134 257 -357s-97 -357 -257 -357s-258 135 -258 357s98 357 258 357zM291 19c91 0 152 134 152 323
s-61 323 -152 323s-153 -134 -153 -323s62 -323 153 -323z" />
    <glyph glyph-name="Omacron" unicode="&#x14c;" horiz-adv-x="581" 
d="M414 862h-247v54h247v-54zM291 699c160 0 257 -134 257 -357s-97 -357 -257 -357s-258 135 -258 357s98 357 258 357zM291 19c91 0 152 134 152 323s-61 323 -152 323s-153 -134 -153 -323s62 -323 153 -323z" />
    <glyph glyph-name="Oslash" unicode="&#xd8;" horiz-adv-x="581" 
d="M472 614c49 -61 76 -154 76 -272c0 -223 -97 -357 -257 -357c-62 0 -115 20 -156 58l-26 -43h-41l42 70c-50 62 -77 155 -77 272c0 222 98 357 258 357c62 0 115 -20 156 -58l30 51h41zM138 342c0 -70 8 -132 24 -183l242 409c-27 61 -66 97 -113 97
c-91 0 -153 -134 -153 -323zM291 19c91 0 152 134 152 323c0 70 -8 132 -24 183l-241 -409c26 -61 66 -97 113 -97z" />
    <glyph glyph-name="Otilde" unicode="&#xd5;" horiz-adv-x="581" 
d="M422 923c0 -97 -20 -132 -77 -132c-23 0 -40 14 -55 27c-16 13 -30 25 -52 25c-36 0 -62 -21 -62 -49h-16c0 96 21 132 78 132c22 0 38 -13 54 -26s31 -26 53 -26c36 0 61 21 61 49h16zM291 699c160 0 257 -134 257 -357s-97 -357 -257 -357s-258 135 -258 357
s98 357 258 357zM291 19c91 0 152 134 152 323s-61 323 -152 323s-153 -134 -153 -323s62 -323 153 -323z" />
    <glyph glyph-name="OE" unicode="&#x152;" horiz-adv-x="874" 
d="M582 660v-272c1 -11 1 -23 1 -35h247v-23h-247c0 -12 0 -24 -1 -35v-272h266v-23h-376v64c-34 -46 -95 -80 -161 -80c-188 0 -273 160 -273 357c0 198 85 357 273 357c66 0 122 -44 161 -100v85h376v-23h-266zM311 18c104 0 161 140 161 317c0 167 -57 330 -161 330
c-105 0 -162 -163 -162 -330c0 -177 57 -317 162 -317z" />
    <glyph glyph-name="P" unicode="P" horiz-adv-x="527" 
d="M178 683c196 -1 316 -21 316 -207c0 -147 -113 -220 -316 -220v-256h-108v683h108zM178 275c54 4 197 33 197 201c0 136 -52 185 -197 188v-389z" />
    <glyph glyph-name="Thorn" unicode="&#xde;" horiz-adv-x="541" 
d="M178 555c203 0 328 -26 328 -217c0 -242 -297 -210 -328 -210v-128h-108v683h108v-128zM178 147c40 0 209 9 209 191c0 162 -86 198 -209 198v-389z" />
    <glyph glyph-name="Q" unicode="Q" horiz-adv-x="591" 
d="M411 15c30 -107 84 -150 177 -139v-13c-111 -18 -190 21 -252 124c-8 -1 -29 -3 -45 -3c-161 0 -258 134 -258 357c0 222 98 357 258 357s257 -134 257 -357c0 -157 -50 -275 -137 -326zM291 17c91 0 152 135 152 324c0 188 -62 323 -152 323c-91 0 -153 -134 -153 -323
s62 -324 153 -324z" />
    <glyph glyph-name="R" unicode="R" horiz-adv-x="539" 
d="M343 275l181 -275h-119l-170 257c-24 -2 -42 -2 -57 -2v-255h-108v683h108c196 -1 316 -21 316 -207c0 -101 -51 -169 -151 -201zM178 275c54 4 197 33 197 201c0 136 -52 185 -197 188v-389z" />
    <glyph glyph-name="Racute" unicode="&#x154;" horiz-adv-x="539" 
d="M342 916c-30 -56 -76 -95 -138 -115l-13 18c33 24 54 68 54 114h97v-17zM343 275l181 -275h-119l-170 257c-24 -2 -42 -2 -57 -2v-255h-108v683h108c196 -1 316 -21 316 -207c0 -101 -51 -169 -151 -201zM178 275c54 4 197 33 197 201c0 136 -52 185 -197 188v-389z" />
    <glyph glyph-name="Rcaron" unicode="&#x158;" horiz-adv-x="539" 
d="M227 783c-9 18 -40 93 -114 131l6 12c62 -13 109 -36 148 -71c39 35 86 58 148 71l6 -12c-66 -34 -98 -97 -111 -123l-5 -10h-74zM343 275l181 -275h-119l-170 257c-24 -2 -42 -2 -57 -2v-255h-108v683h108c196 -1 316 -21 316 -207c0 -101 -51 -169 -151 -201zM178 275
c54 4 197 33 197 201c0 136 -52 185 -197 188v-389z" />
    <glyph glyph-name="uni0156" unicode="&#x156;" horiz-adv-x="539" 
d="M343 275l181 -275h-119l-170 257c-24 -2 -42 -2 -57 -2v-255h-108v683h108c196 -1 316 -21 316 -207c0 -101 -51 -169 -151 -201zM178 275c54 4 197 33 197 201c0 136 -52 185 -197 188v-389zM297 -64c27 -12 40 -34 39 -67c-1 -41 -52 -144 -86 -191l-6 4
c12 21 18 53 17 84c-1 27 -35 49 -43 57c-21 26 -26 54 -14 80c16 34 57 49 93 33z" />
    <glyph glyph-name="S" unicode="S" horiz-adv-x="473" 
d="M269 374c66 -46 171 -129 171 -217c0 -127 -119 -172 -216 -172c-86 0 -155 39 -189 106l16 9c36 -54 92 -87 148 -87c83 0 123 35 123 110c0 59 -44 118 -128 175c-68 44 -161 108 -161 223c0 110 74 178 197 178c92 0 154 -35 189 -106l-15 -8c-35 55 -86 85 -148 85
c-65 0 -113 -53 -113 -123c0 -84 60 -127 126 -173z" />
    <glyph glyph-name="Sacute" unicode="&#x15a;" horiz-adv-x="473" 
d="M215 933h97v-17c-30 -56 -76 -95 -138 -115l-13 18c33 24 54 68 54 114zM269 374c66 -46 171 -129 171 -217c0 -127 -119 -172 -216 -172c-86 0 -155 39 -189 106l16 9c36 -54 92 -87 148 -87c83 0 123 35 123 110c0 59 -44 118 -128 175c-68 44 -161 108 -161 223
c0 110 74 178 197 178c92 0 154 -35 189 -106l-15 -8c-35 55 -86 85 -148 85c-65 0 -113 -53 -113 -123c0 -84 60 -127 126 -173z" />
    <glyph glyph-name="Scaron" unicode="&#x160;" horiz-adv-x="473" 
d="M275 781h-74l-4 2c-9 18 -40 93 -114 131l6 12c62 -13 109 -36 148 -71c39 35 86 58 148 71l6 -12c-66 -34 -98 -97 -111 -123zM269 374c66 -46 171 -129 171 -217c0 -127 -119 -172 -216 -172c-86 0 -155 39 -189 106l16 9c36 -54 92 -87 148 -87c83 0 123 35 123 110
c0 59 -44 118 -128 175c-68 44 -161 108 -161 223c0 110 74 178 197 178c92 0 154 -35 189 -106l-15 -8c-35 55 -86 85 -148 85c-65 0 -113 -53 -113 -123c0 -84 60 -127 126 -173z" />
    <glyph glyph-name="Scedilla" unicode="&#x15e;" horiz-adv-x="473" 
d="M440 157c0 -107 -85 -156 -170 -169c28 -26 58 -68 58 -120c0 -60 -34 -94 -96 -94c-52 0 -77 54 -85 73l8 4c11 -12 31 -33 56 -33c40 0 62 27 62 73c0 33 -17 69 -31 94h-18c-86 0 -155 39 -189 106l16 9c36 -54 92 -87 148 -87c9 0 17 0 25 1l9 5l4 -3
c57 10 85 45 85 107c0 59 -44 118 -128 175c-68 44 -161 108 -161 223c0 110 74 178 197 178c92 0 154 -35 189 -106l-15 -8c-35 55 -86 85 -148 85c-65 0 -113 -53 -113 -123c0 -84 60 -127 126 -173s171 -129 171 -217z" />
    <glyph glyph-name="uni0218" unicode="&#x218;" horiz-adv-x="473" 
d="M269 374c66 -46 171 -129 171 -217c0 -127 -119 -172 -216 -172c-86 0 -155 39 -189 106l16 9c36 -54 92 -87 148 -87c83 0 123 35 123 110c0 59 -44 118 -128 175c-68 44 -161 108 -161 223c0 110 74 178 197 178c92 0 154 -35 189 -106l-15 -8c-35 55 -86 85 -148 85
c-65 0 -113 -53 -113 -123c0 -84 60 -127 126 -173zM306 -131c-1 -41 -52 -144 -86 -191l-6 4c12 21 18 53 17 84c-1 27 -35 49 -43 57c-21 26 -26 54 -14 80c16 34 57 49 93 33c27 -12 40 -34 39 -67z" />
    <glyph glyph-name="T" unicode="T" horiz-adv-x="533" 
d="M523 660h-202v-660h-109v660h-202v23h513v-23z" />
    <glyph glyph-name="Tbar" unicode="&#x166;" horiz-adv-x="533" 
d="M523 660h-202v-301h126v-26h-126v-333h-109v333h-126v26h126v301h-202v23h513v-23z" />
    <glyph glyph-name="Tcaron" unicode="&#x164;" horiz-adv-x="533" 
d="M305 781h-74l-4 2c-9 18 -40 93 -114 131l6 12c62 -13 109 -36 148 -71c39 35 86 58 148 71l6 -12c-66 -34 -98 -97 -111 -123zM523 660h-202v-660h-109v660h-202v23h513v-23z" />
    <glyph glyph-name="uni0162" unicode="&#x162;" horiz-adv-x="533" 
d="M321 660v-660h-33c29 -26 70 -72 70 -132s-34 -94 -96 -94c-52 0 -77 54 -85 73l8 4c11 -12 31 -33 56 -33c40 0 62 27 62 73c0 40 -24 84 -40 109h-51v660h-202v23h513v-23h-202z" />
    <glyph glyph-name="uni021A" unicode="&#x21a;" horiz-adv-x="533" 
d="M523 660h-202v-660h-109v660h-202v23h513v-23zM336 -131c-1 -41 -52 -144 -86 -191l-6 4c12 21 18 53 17 84c-1 27 -35 49 -43 57c-21 26 -26 54 -14 80c16 34 57 49 93 33c27 -12 40 -34 39 -67z" />
    <glyph glyph-name="U" unicode="U" horiz-adv-x="570" 
d="M482 683c0 1 0 1 28 1v-401c0 -214 -73 -298 -223 -298c-146 0 -222 90 -222 298v401h114v-449c0 -133 38 -210 153 -210c104 0 150 88 150 250v408z" />
    <glyph glyph-name="Uacute" unicode="&#xda;" horiz-adv-x="570" 
d="M360 916c-30 -56 -76 -95 -138 -115l-13 18c33 24 54 68 54 114h97v-17zM482 683c0 1 0 1 28 1v-401c0 -214 -73 -298 -223 -298c-146 0 -222 90 -222 298v401h114v-449c0 -133 38 -210 153 -210c104 0 150 88 150 250v408z" />
    <glyph glyph-name="uni01D3" unicode="&#x1d3;" horiz-adv-x="570" 
d="M245 783c-9 18 -40 93 -114 131l6 12c62 -13 109 -36 148 -71c39 35 86 58 148 71l6 -12c-66 -34 -98 -97 -111 -123l-5 -10h-74zM482 683c0 1 0 1 28 1v-401c0 -214 -73 -298 -223 -298c-146 0 -222 90 -222 298v401h114v-449c0 -133 38 -210 153 -210
c104 0 150 88 150 250v408z" />
    <glyph glyph-name="Ucircumflex" unicode="&#xdb;" horiz-adv-x="570" 
d="M285 842c-39 -35 -86 -58 -148 -71l-6 12c72 37 116 127 118 133h72c2 -6 46 -96 118 -133l-6 -12c-62 13 -109 36 -148 71zM482 683c0 1 0 1 28 1v-401c0 -214 -73 -298 -223 -298c-146 0 -222 90 -222 298v401h114v-449c0 -133 38 -210 153 -210c104 0 150 88 150 250
v408z" />
    <glyph glyph-name="Udieresis" unicode="&#xdc;" horiz-adv-x="570" 
d="M165 806c-33 0 -60 26 -60 59s27 59 60 59s59 -26 59 -59s-26 -59 -59 -59zM405 806c-33 0 -59 26 -59 59s26 59 59 59s60 -26 60 -59s-27 -59 -60 -59zM482 683c0 1 0 1 28 1v-401c0 -214 -73 -298 -223 -298c-146 0 -222 90 -222 298v401h114v-449
c0 -133 38 -210 153 -210c104 0 150 88 150 250v408z" />
    <glyph glyph-name="uni01D7" unicode="&#x1d7;" horiz-adv-x="570" 
d="M360 1148c-30 -56 -76 -95 -138 -115l-13 18c33 24 54 68 54 114h97v-17zM165 806c-33 0 -60 26 -60 59s27 59 60 59s59 -26 59 -59s-26 -59 -59 -59zM405 806c-33 0 -59 26 -59 59s26 59 59 59s60 -26 60 -59s-27 -59 -60 -59zM482 683c0 1 0 1 28 1v-401
c0 -214 -73 -298 -223 -298c-146 0 -222 90 -222 298v401h114v-449c0 -133 38 -210 153 -210c104 0 150 88 150 250v408z" />
    <glyph glyph-name="uni01D9" unicode="&#x1d9;" horiz-adv-x="570" 
d="M245 1015c-9 18 -40 93 -114 131l6 12c62 -13 109 -36 148 -71c39 35 86 58 148 71l6 -12c-66 -34 -98 -97 -111 -123l-5 -10h-74zM165 806c-33 0 -60 26 -60 59s27 59 60 59s59 -26 59 -59s-26 -59 -59 -59zM346 865c0 33 26 59 59 59s60 -26 60 -59s-27 -59 -60 -59
s-59 26 -59 59zM482 683c0 1 0 1 28 1v-401c0 -214 -73 -298 -223 -298c-146 0 -222 90 -222 298v401h114v-449c0 -133 38 -210 153 -210c104 0 150 88 150 250v408z" />
    <glyph glyph-name="uni01DB" unicode="&#x1db;" horiz-adv-x="570" 
d="M348 1034c-77 24 -116 72 -139 114v17h98c0 -40 17 -87 54 -114zM165 806c-33 0 -60 26 -60 59s27 59 60 59s59 -26 59 -59s-26 -59 -59 -59zM405 806c-33 0 -59 26 -59 59s26 59 59 59s60 -26 60 -59s-27 -59 -60 -59zM482 683c0 1 0 1 28 1v-401
c0 -214 -73 -298 -223 -298c-146 0 -222 90 -222 298v401h114v-449c0 -133 38 -210 153 -210c104 0 150 88 150 250v408z" />
    <glyph glyph-name="uni01D5" unicode="&#x1d5;" horiz-adv-x="570" 
d="M408 1148v-54h-247v54h247zM165 806c-33 0 -60 26 -60 59s27 59 60 59s59 -26 59 -59s-26 -59 -59 -59zM346 865c0 33 26 59 59 59s60 -26 60 -59s-27 -59 -60 -59s-59 26 -59 59zM482 683c0 1 0 1 28 1v-401c0 -214 -73 -298 -223 -298c-146 0 -222 90 -222 298v401h114
v-449c0 -133 38 -210 153 -210c104 0 150 88 150 250v408z" />
    <glyph glyph-name="Ugrave" unicode="&#xd9;" horiz-adv-x="570" 
d="M348 802c-77 24 -116 72 -139 114v17h98c0 -40 17 -87 54 -114zM482 683c0 1 0 1 28 1v-401c0 -214 -73 -298 -223 -298c-146 0 -222 90 -222 298v401h114v-449c0 -133 38 -210 153 -210c104 0 150 88 150 250v408z" />
    <glyph glyph-name="Uhungarumlaut" unicode="&#x170;" horiz-adv-x="570" 
d="M292 897c-30 -62 -76 -104 -138 -126l-14 19c34 28 55 76 55 126h97v-19zM277 790c34 27 55 75 55 126h97v-19c-30 -62 -76 -104 -138 -126zM482 683c0 1 0 1 28 1v-401c0 -214 -73 -298 -223 -298c-146 0 -222 90 -222 298v401h114v-449c0 -133 38 -210 153 -210
c104 0 150 88 150 250v408z" />
    <glyph glyph-name="Umacron" unicode="&#x16a;" horiz-adv-x="570" 
d="M408 916v-54h-247v54h247zM482 683c0 1 0 1 28 1v-401c0 -214 -73 -298 -223 -298c-146 0 -222 90 -222 298v401h114v-449c0 -133 38 -210 153 -210c104 0 150 88 150 250v408z" />
    <glyph glyph-name="Uogonek" unicode="&#x172;" horiz-adv-x="570" 
d="M510 283c0 -214 -73 -298 -223 -298c-146 0 -222 90 -222 298v401h114v-449c0 -133 38 -210 153 -210c104 0 150 88 150 250v408c0 1 0 1 28 1v-401zM503 -149l8 -4c-8 -19 -33 -73 -85 -73c-62 0 -96 34 -96 94c0 81 73 136 95 151l9 -5c-12 -18 -49 -74 -49 -123
c0 -46 22 -73 62 -73c25 0 45 21 56 33z" />
    <glyph glyph-name="Uring" unicode="&#x16e;" horiz-adv-x="570" 
d="M285 790c-40 0 -73 33 -73 73s33 72 73 72s72 -32 72 -72s-32 -73 -72 -73zM285 909c-25 0 -46 -21 -46 -46c0 -26 20 -47 46 -47c25 0 46 21 46 47c0 25 -21 46 -46 46zM482 683c0 1 0 1 28 1v-401c0 -214 -73 -298 -223 -298c-146 0 -222 90 -222 298v401h114v-449
c0 -133 38 -210 153 -210c104 0 150 88 150 250v408z" />
    <glyph glyph-name="V" unicode="V" horiz-adv-x="513" 
d="M491 683l-215 -698h-37l-40 127l-175 571h34l158 -517l158 517h117z" />
    <glyph glyph-name="W" unicode="W" horiz-adv-x="850" 
d="M829 684l-145 -684h-114l-138 640l-136 -640h-113l-148 684h114l129 -598l126 598h132l129 -598l127 598h37z" />
    <glyph glyph-name="Wacute" unicode="&#x1e82;" horiz-adv-x="850" 
d="M409 933h97v-17c-30 -56 -76 -95 -138 -115l-13 18c33 24 54 68 54 114zM829 684l-145 -684h-114l-138 640l-136 -640h-113l-148 684h114l129 -598l126 598h132l129 -598l127 598h37z" />
    <glyph glyph-name="Wcircumflex" unicode="&#x174;" horiz-adv-x="850" 
d="M277 783c72 37 116 127 118 133h72c2 -6 46 -96 118 -133l-6 -12c-62 13 -109 36 -148 71c-39 -35 -86 -58 -148 -71zM829 684l-145 -684h-114l-138 640l-136 -640h-113l-148 684h114l129 -598l126 598h132l129 -598l127 598h37z" />
    <glyph glyph-name="Wdieresis" unicode="&#x1e84;" horiz-adv-x="850" 
d="M311 806c-33 0 -60 26 -60 59s27 59 60 59s59 -26 59 -59s-26 -59 -59 -59zM551 806c-33 0 -59 26 -59 59s26 59 59 59s60 -26 60 -59s-27 -59 -60 -59zM829 684l-145 -684h-114l-138 640l-136 -640h-113l-148 684h114l129 -598l126 598h132l129 -598l127 598h37z" />
    <glyph glyph-name="Wgrave" unicode="&#x1e80;" horiz-adv-x="850" 
d="M453 933c0 -40 17 -87 54 -114l-13 -17c-77 24 -116 72 -139 114v17h98zM829 684l-145 -684h-114l-138 640l-136 -640h-113l-148 684h114l129 -598l126 598h132l129 -598l127 598h37z" />
    <glyph glyph-name="X" unicode="X" horiz-adv-x="522" 
d="M384 0l-146 276l-170 -276h-35l189 307l-198 376h114l145 -276l170 276h36l-189 -307l198 -376h-114z" />
    <glyph glyph-name="Y" unicode="Y" horiz-adv-x="601" 
d="M347 343v-343h-96v322l-227 361h126l189 -293l201 293h42z" />
    <glyph glyph-name="Yacute" unicode="&#xdd;" horiz-adv-x="601" 
d="M280 933h97v-17c-30 -56 -76 -95 -138 -115l-13 18c33 24 54 68 54 114zM347 343v-343h-96v322l-227 361h126l189 -293l201 293h42z" />
    <glyph glyph-name="Ycircumflex" unicode="&#x176;" horiz-adv-x="601" 
d="M148 783c72 37 116 127 118 133h72c2 -6 46 -96 118 -133l-6 -12c-62 13 -109 36 -148 71c-39 -35 -86 -58 -148 -71zM347 343v-343h-96v322l-227 361h126l189 -293l201 293h42z" />
    <glyph glyph-name="Ydieresis" unicode="&#x178;" horiz-adv-x="601" 
d="M182 806c-33 0 -60 26 -60 59s27 59 60 59s59 -26 59 -59s-26 -59 -59 -59zM422 806c-33 0 -59 26 -59 59s26 59 59 59s60 -26 60 -59s-27 -59 -60 -59zM347 343v-343h-96v322l-227 361h126l189 -293l201 293h42z" />
    <glyph glyph-name="Ygrave" unicode="&#x1ef2;" horiz-adv-x="601" 
d="M324 933c0 -40 17 -87 54 -114l-13 -17c-77 24 -116 72 -139 114v17h98zM347 343v-343h-96v322l-227 361h126l189 -293l201 293h42z" />
    <glyph glyph-name="Z" unicode="Z" horiz-adv-x="468" 
d="M153 23h290v-23h-419l290 661h-278v22h407z" />
    <glyph glyph-name="Zacute" unicode="&#x179;" horiz-adv-x="468" 
d="M212 933h97v-17c-30 -56 -76 -95 -138 -115l-13 18c33 24 54 68 54 114zM153 23h290v-23h-419l290 661h-278v22h407z" />
    <glyph glyph-name="Zcaron" unicode="&#x17d;" horiz-adv-x="468" 
d="M272 781h-74l-4 2c-9 18 -40 93 -114 131l6 12c62 -13 109 -36 148 -71c39 35 86 58 148 71l6 -12c-66 -34 -98 -97 -111 -123zM153 23h290v-23h-419l290 661h-278v22h407z" />
    <glyph glyph-name="Zdotaccent" unicode="&#x17b;" horiz-adv-x="468" 
d="M233 806c-33 0 -59 26 -59 59s26 59 59 59s60 -26 60 -59s-27 -59 -60 -59zM153 23h290v-23h-419l290 661h-278v22h407z" />
    <glyph glyph-name="I.alt1" unicode="&#xf002;" horiz-adv-x="328" 
d="M218 660v-637h86v-23h-281v23h86v637h-86v23h281v-23h-86z" />
    <glyph glyph-name="a" unicode="a" horiz-adv-x="545" 
d="M475 459v-459h-108v69c-27 -46 -66 -85 -136 -85c-122 0 -188 86 -188 246c0 118 61 245 202 245c45 0 86 -16 122 -48v32h108zM248 8c41 0 89 34 119 84v319c-30 28 -64 41 -105 41c-63 0 -101 -88 -101 -222c0 -132 33 -222 87 -222z" />
    <glyph glyph-name="aacute" unicode="&#xe1;" horiz-adv-x="545" 
d="M251 700h97v-17c-30 -56 -76 -95 -138 -115l-13 18c33 24 54 68 54 114zM475 459v-459h-108v69c-27 -46 -66 -85 -136 -85c-122 0 -188 86 -188 246c0 118 61 245 202 245c45 0 86 -16 122 -48v32h108zM248 8c41 0 89 34 119 84v319c-30 28 -64 41 -105 41
c-63 0 -101 -88 -101 -222c0 -132 33 -222 87 -222z" />
    <glyph glyph-name="abreve" unicode="&#x103;" horiz-adv-x="545" 
d="M145 689l9 4c23 -36 77 -66 119 -66s96 30 119 66l9 -4l3 -4c-3 -20 -22 -128 -131 -128s-128 108 -131 128zM475 459v-459h-108v69c-27 -46 -66 -85 -136 -85c-122 0 -188 86 -188 246c0 118 61 245 202 245c45 0 86 -16 122 -48v32h108zM248 8c41 0 89 34 119 84v319
c-30 28 -64 41 -105 41c-63 0 -101 -88 -101 -222c0 -132 33 -222 87 -222z" />
    <glyph glyph-name="uni01CE" unicode="&#x1ce;" horiz-adv-x="545" 
d="M311 548h-74l-4 2c-9 18 -40 93 -114 131l6 12c62 -13 109 -36 148 -71c39 35 86 58 148 71l6 -12c-66 -34 -98 -97 -111 -123zM475 459v-459h-108v69c-27 -46 -66 -85 -136 -85c-122 0 -188 86 -188 246c0 118 61 245 202 245c45 0 86 -16 122 -48v32h108zM248 8
c41 0 89 34 119 84v319c-30 28 -64 41 -105 41c-63 0 -101 -88 -101 -222c0 -132 33 -222 87 -222z" />
    <glyph glyph-name="acircumflex" unicode="&#xe2;" horiz-adv-x="545" 
d="M119 550c72 37 116 127 118 133h72c2 -6 46 -96 118 -133l-6 -12c-62 13 -109 36 -148 71c-39 -35 -86 -58 -148 -71zM475 459v-459h-108v69c-27 -46 -66 -85 -136 -85c-122 0 -188 86 -188 246c0 118 61 245 202 245c45 0 86 -16 122 -48v32h108zM248 8
c41 0 89 34 119 84v319c-30 28 -64 41 -105 41c-63 0 -101 -88 -101 -222c0 -132 33 -222 87 -222z" />
    <glyph glyph-name="adieresis" unicode="&#xe4;" horiz-adv-x="545" 
d="M153 573c-33 0 -60 26 -60 59s27 59 60 59s59 -26 59 -59s-26 -59 -59 -59zM393 573c-33 0 -59 26 -59 59s26 59 59 59s60 -26 60 -59s-27 -59 -60 -59zM475 459v-459h-108v69c-27 -46 -66 -85 -136 -85c-122 0 -188 86 -188 246c0 118 61 245 202 245
c45 0 86 -16 122 -48v32h108zM248 8c41 0 89 34 119 84v319c-30 28 -64 41 -105 41c-63 0 -101 -88 -101 -222c0 -132 33 -222 87 -222z" />
    <glyph glyph-name="agrave" unicode="&#xe0;" horiz-adv-x="545" 
d="M295 700c0 -40 17 -87 54 -114l-13 -17c-77 24 -116 72 -139 114v17h98zM475 459v-459h-108v69c-27 -46 -66 -85 -136 -85c-122 0 -188 86 -188 246c0 118 61 245 202 245c45 0 86 -16 122 -48v32h108zM248 8c41 0 89 34 119 84v319c-30 28 -64 41 -105 41
c-63 0 -101 -88 -101 -222c0 -132 33 -222 87 -222z" />
    <glyph glyph-name="amacron" unicode="&#x101;" horiz-adv-x="545" 
d="M396 629h-247v54h247v-54zM475 459v-459h-108v69c-27 -46 -66 -85 -136 -85c-122 0 -188 86 -188 246c0 118 61 245 202 245c45 0 86 -16 122 -48v32h108zM248 8c41 0 89 34 119 84v319c-30 28 -64 41 -105 41c-63 0 -101 -88 -101 -222c0 -132 33 -222 87 -222z" />
    <glyph glyph-name="aogonek" unicode="&#x105;" horiz-adv-x="545" 
d="M481 -149l8 -4c-8 -19 -33 -73 -85 -73c-62 0 -96 34 -96 94s41 106 70 132h-11v69c-27 -46 -66 -85 -136 -85c-122 0 -188 86 -188 246c0 118 61 245 202 245c45 0 86 -16 122 -48v32h108v-459h-72c-16 -25 -40 -69 -40 -109c0 -46 22 -73 62 -73c25 0 45 21 56 33z
M367 92v319c-30 28 -64 41 -105 41c-63 0 -101 -88 -101 -222c0 -132 33 -222 87 -222c41 0 89 34 119 84z" />
    <glyph glyph-name="aring" unicode="&#xe5;" horiz-adv-x="545" 
d="M273 702c40 0 72 -32 72 -72s-32 -73 -72 -73s-73 33 -73 73s33 72 73 72zM273 583c25 0 46 21 46 47c0 25 -21 46 -46 46s-46 -21 -46 -46c0 -26 20 -47 46 -47zM475 459v-459h-108v69c-27 -46 -66 -85 -136 -85c-122 0 -188 86 -188 246c0 118 61 245 202 245
c45 0 86 -16 122 -48v32h108zM248 8c41 0 89 34 119 84v319c-30 28 -64 41 -105 41c-63 0 -101 -88 -101 -222c0 -132 33 -222 87 -222z" />
    <glyph glyph-name="atilde" unicode="&#xe3;" horiz-adv-x="545" 
d="M404 690c0 -97 -20 -132 -77 -132c-23 0 -40 14 -55 27c-16 13 -30 25 -52 25c-36 0 -62 -21 -62 -49h-16c0 96 21 132 78 132c22 0 38 -13 54 -26s31 -26 53 -26c36 0 61 21 61 49h16zM475 459v-459h-108v69c-27 -46 -66 -85 -136 -85c-122 0 -188 86 -188 246
c0 118 61 245 202 245c45 0 86 -16 122 -48v32h108zM248 8c41 0 89 34 119 84v319c-30 28 -64 41 -105 41c-63 0 -101 -88 -101 -222c0 -132 33 -222 87 -222z" />
    <glyph glyph-name="ae" unicode="&#xe6;" horiz-adv-x="856" 
d="M817 222h-285c2 -95 28 -214 116 -214c35 0 80 14 108 41l8 -8c-35 -35 -85 -57 -149 -57c-72 0 -123 30 -156 78v-62h-93v69c-27 -46 -66 -85 -136 -85c-139 0 -188 110 -188 246c0 118 61 245 202 245c47 0 88 -18 122 -48v32h93v-62c33 48 84 78 156 78
c115 0 199 -106 202 -238v-15zM615 459c-45 0 -81 -98 -83 -222h167c-2 124 -38 222 -84 222zM247 8c44 0 92 38 119 84v319c-28 26 -61 41 -105 41c-78 0 -101 -126 -101 -222c0 -97 22 -222 87 -222z" />
    <glyph glyph-name="b" unicode="b" horiz-adv-x="534" 
d="M300 475c123 0 191 -87 191 -245c0 -165 -58 -246 -177 -246c-70 0 -109 39 -136 85v-69h-108v683h108v-256c36 32 77 48 122 48zM297 8c52 0 75 76 75 222c0 149 -28 222 -89 222c-41 0 -75 -13 -105 -41v-319c30 -50 78 -84 119 -84z" />
    <glyph glyph-name="c" unicode="c" horiz-adv-x="394" 
d="M251 7c42 0 76 13 106 41l8 -7c-36 -37 -82 -57 -131 -57c-125 0 -202 92 -202 245c0 154 76 245 202 245c50 0 95 -19 131 -56l-8 -8c-30 28 -64 41 -106 41c-63 0 -101 -88 -101 -222s38 -222 101 -222z" />
    <glyph glyph-name="cacute" unicode="&#x107;" horiz-adv-x="394" 
d="M174 700h97v-17c-30 -56 -76 -95 -138 -115l-13 18c33 24 54 68 54 114zM251 7c42 0 76 13 106 41l8 -7c-36 -37 -82 -57 -131 -57c-125 0 -202 92 -202 245c0 154 76 245 202 245c50 0 95 -19 131 -56l-8 -8c-30 28 -64 41 -106 41c-63 0 -101 -88 -101 -222
s38 -222 101 -222z" />
    <glyph glyph-name="ccaron" unicode="&#x10d;" horiz-adv-x="394" 
d="M234 548h-74l-4 2c-9 18 -40 93 -114 131l6 12c62 -13 109 -36 148 -71c39 35 86 58 148 71l6 -12c-66 -34 -98 -97 -111 -123zM251 7c42 0 76 13 106 41l8 -7c-36 -37 -82 -57 -131 -57c-125 0 -202 92 -202 245c0 154 76 245 202 245c50 0 95 -19 131 -56l-8 -8
c-30 28 -64 41 -106 41c-63 0 -101 -88 -101 -222s38 -222 101 -222z" />
    <glyph glyph-name="ccedilla" unicode="&#xe7;" horiz-adv-x="394" 
d="M251 7c42 0 76 13 106 41l8 -7c-36 -37 -82 -57 -131 -57c26 -27 53 -67 53 -116c0 -60 -34 -94 -96 -94c-52 0 -77 54 -85 73l8 4c11 -12 31 -33 56 -33c40 0 62 27 62 73c0 33 -17 70 -32 95c-105 16 -168 104 -168 243c0 154 76 245 202 245c50 0 95 -19 131 -56
l-8 -8c-30 28 -64 41 -106 41c-63 0 -101 -88 -101 -222s38 -222 101 -222z" />
    <glyph glyph-name="cdotaccent" unicode="&#x10b;" horiz-adv-x="394" 
d="M195 573c-33 0 -59 26 -59 59s26 59 59 59s60 -26 60 -59s-27 -59 -60 -59zM251 7c42 0 76 13 106 41l8 -7c-36 -37 -82 -57 -131 -57c-125 0 -202 92 -202 245c0 154 76 245 202 245c50 0 95 -19 131 -56l-8 -8c-30 28 -64 41 -106 41c-63 0 -101 -88 -101 -222
s38 -222 101 -222z" />
    <glyph glyph-name="d" unicode="d" horiz-adv-x="533" 
d="M464 683v-683h-109v69c-33 -58 -76 -85 -136 -85c-118 0 -176 82 -176 246c0 158 68 245 190 245c45 0 87 -16 122 -48v256h109zM236 8c42 0 90 34 119 84v319c-29 28 -63 41 -105 41c-61 0 -89 -76 -89 -222s23 -222 75 -222z" />
    <glyph glyph-name="eth" unicode="&#xf0;" horiz-adv-x="600" 
d="M531 230v-1c0 -135 -80 -245 -218 -245c-139 0 -219 110 -219 245c0 136 80 246 219 246c24 0 47 -3 67 -10c-14 41 -34 77 -60 110l-72 -62l-18 20l74 63c-21 25 -46 49 -73 74l11 13c28 -23 56 -45 83 -68l50 43l18 -20l-48 -41c101 -90 186 -195 186 -367zM313 7
c77 0 100 126 100 222v1c0 96 -23 221 -100 221c-78 0 -101 -125 -101 -222c0 -96 23 -222 101 -222z" />
    <glyph glyph-name="dcaron" unicode="&#x10f;" horiz-adv-x="533" 
d="M283 683h-74l-4 2c-9 18 -40 93 -114 131l6 12c62 -13 109 -36 148 -71c39 35 86 58 148 71l6 -12c-66 -34 -98 -97 -111 -123zM464 683v-683h-109v69c-33 -58 -76 -85 -136 -85c-118 0 -176 82 -176 246c0 158 68 245 190 245c45 0 87 -16 122 -48v256h109zM236 8
c42 0 90 34 119 84v319c-29 28 -63 41 -105 41c-61 0 -89 -76 -89 -222s23 -222 75 -222z" />
    <glyph glyph-name="dcroat" unicode="&#x111;" horiz-adv-x="533" 
d="M355 683h109v-683h-109v69c-33 -58 -76 -85 -136 -85c-118 0 -176 82 -176 246c0 158 68 245 190 245c45 0 87 -16 122 -48v256zM250 452c-59 0 -87 -71 -89 -209h194v168c-29 28 -63 41 -105 41zM236 8c42 0 90 34 119 84v125h-194c1 -138 25 -209 75 -209z" />
    <glyph glyph-name="e" unicode="e" horiz-adv-x="467" 
d="M435 222h-284c1 -133 44 -214 116 -214c40 0 83 17 107 41l8 -8c-37 -38 -88 -57 -148 -57c-126 0 -202 92 -202 246c0 153 77 245 202 245c112 0 198 -102 201 -238v-15zM234 459c-47 0 -82 -101 -83 -222h166c-1 121 -36 222 -83 222z" />
    <glyph glyph-name="eacute" unicode="&#xe9;" horiz-adv-x="467" 
d="M213 700h97v-17c-30 -56 -76 -95 -138 -115l-13 18c33 24 54 68 54 114zM435 222h-284c1 -133 44 -214 116 -214c40 0 83 17 107 41l8 -8c-37 -38 -88 -57 -148 -57c-126 0 -202 92 -202 246c0 153 77 245 202 245c112 0 198 -102 201 -238v-15zM234 459
c-47 0 -82 -101 -83 -222h166c-1 121 -36 222 -83 222z" />
    <glyph glyph-name="ecaron" unicode="&#x11b;" horiz-adv-x="467" 
d="M273 548h-74l-4 2c-9 18 -40 93 -114 131l6 12c62 -13 109 -36 148 -71c39 35 86 58 148 71l6 -12c-66 -34 -98 -97 -111 -123zM435 222h-284c1 -133 44 -214 116 -214c40 0 83 17 107 41l8 -8c-37 -38 -88 -57 -148 -57c-126 0 -202 92 -202 246c0 153 77 245 202 245
c112 0 198 -102 201 -238v-15zM234 459c-47 0 -82 -101 -83 -222h166c-1 121 -36 222 -83 222z" />
    <glyph glyph-name="ecircumflex" unicode="&#xea;" horiz-adv-x="467" 
d="M81 550c72 37 116 127 118 133h72c2 -6 46 -96 118 -133l-6 -12c-62 13 -109 36 -148 71c-39 -35 -86 -58 -148 -71zM435 222h-284c1 -133 44 -214 116 -214c40 0 83 17 107 41l8 -8c-37 -38 -88 -57 -148 -57c-126 0 -202 92 -202 246c0 153 77 245 202 245
c112 0 198 -102 201 -238v-15zM234 459c-47 0 -82 -101 -83 -222h166c-1 121 -36 222 -83 222z" />
    <glyph glyph-name="edieresis" unicode="&#xeb;" horiz-adv-x="467" 
d="M115 573c-33 0 -60 26 -60 59s27 59 60 59s59 -26 59 -59s-26 -59 -59 -59zM355 573c-33 0 -59 26 -59 59s26 59 59 59s60 -26 60 -59s-27 -59 -60 -59zM435 222h-284c1 -133 44 -214 116 -214c40 0 83 17 107 41l8 -8c-37 -38 -88 -57 -148 -57c-126 0 -202 92 -202 246
c0 153 77 245 202 245c112 0 198 -102 201 -238v-15zM234 459c-47 0 -82 -101 -83 -222h166c-1 121 -36 222 -83 222z" />
    <glyph glyph-name="edotaccent" unicode="&#x117;" horiz-adv-x="467" 
d="M234 573c-33 0 -59 26 -59 59s26 59 59 59s60 -26 60 -59s-27 -59 -60 -59zM435 222h-284c1 -133 44 -214 116 -214c40 0 83 17 107 41l8 -8c-37 -38 -88 -57 -148 -57c-126 0 -202 92 -202 246c0 153 77 245 202 245c112 0 198 -102 201 -238v-15zM234 459
c-47 0 -82 -101 -83 -222h166c-1 121 -36 222 -83 222z" />
    <glyph glyph-name="egrave" unicode="&#xe8;" horiz-adv-x="467" 
d="M257 700c0 -40 17 -87 54 -114l-13 -17c-77 24 -116 72 -139 114v17h98zM435 222h-284c1 -133 44 -214 116 -214c40 0 83 17 107 41l8 -8c-37 -38 -88 -57 -148 -57c-126 0 -202 92 -202 246c0 153 77 245 202 245c112 0 198 -102 201 -238v-15zM234 459
c-47 0 -82 -101 -83 -222h166c-1 121 -36 222 -83 222z" />
    <glyph glyph-name="emacron" unicode="&#x113;" horiz-adv-x="467" 
d="M358 629h-247v54h247v-54zM435 222h-284c1 -133 44 -214 116 -214c40 0 83 17 107 41l8 -8c-37 -38 -88 -57 -148 -57c-126 0 -202 92 -202 246c0 153 77 245 202 245c112 0 198 -102 201 -238v-15zM234 459c-47 0 -82 -101 -83 -222h166c-1 121 -36 222 -83 222z" />
    <glyph glyph-name="eogonek" unicode="&#x119;" horiz-adv-x="467" 
d="M435 237v-15h-284c1 -133 44 -214 116 -214c40 0 83 17 107 41l8 -8c-10 -11 -22 -20 -34 -27c-13 -19 -49 -74 -49 -123c0 -46 22 -73 62 -73c25 0 45 21 56 33l8 -4c-8 -19 -33 -73 -85 -73c-62 0 -96 34 -96 94c0 57 36 101 65 128c-23 -8 -48 -12 -75 -12
c-126 0 -202 92 -202 246c0 153 77 245 202 245c112 0 198 -102 201 -238zM151 237h166c-1 121 -36 222 -83 222s-82 -101 -83 -222z" />
    <glyph glyph-name="f" unicode="f" horiz-adv-x="311" 
d="M69 505c0 156 115 178 163 178c27 0 59 -5 88 -13l-3 -10s-28 3 -41 3c-59 0 -99 -65 -99 -158v-46h109v-16h-109v-443h-108v505z" />
    <glyph glyph-name="g" unicode="g" horiz-adv-x="515" 
d="M446 474v-464c0 -154 -76 -245 -202 -245c-61 0 -111 19 -148 56l8 8c26 -24 69 -41 108 -41c83 0 126 77 126 222v32c-32 -40 -69 -58 -119 -58c-118 0 -176 81 -176 245c0 158 68 245 190 245c38 0 73 -11 105 -34v34h108zM236 7c40 0 72 19 102 59v359
c-25 18 -53 26 -88 26c-61 0 -89 -76 -89 -222s23 -222 75 -222z" />
    <glyph glyph-name="gbreve" unicode="&#x11f;" horiz-adv-x="515" 
d="M129 689l9 4c23 -36 77 -66 119 -66s96 30 119 66l9 -4l3 -4c-3 -20 -22 -128 -131 -128s-128 108 -131 128zM446 474v-464c0 -154 -76 -245 -202 -245c-61 0 -111 19 -148 56l8 8c26 -24 69 -41 108 -41c83 0 126 77 126 222v32c-32 -40 -69 -58 -119 -58
c-118 0 -176 81 -176 245c0 158 68 245 190 245c38 0 73 -11 105 -34v34h108zM236 7c40 0 72 19 102 59v359c-25 18 -53 26 -88 26c-61 0 -89 -76 -89 -222s23 -222 75 -222z" />
    <glyph glyph-name="uni0123" unicode="&#x123;" horiz-adv-x="515" 
d="M188 585c1 41 52 144 86 191l6 -4c-12 -21 -19 -53 -17 -84c1 -19 18 -35 31 -47c26 -19 42 -55 26 -90c-16 -34 -57 -49 -93 -33c-27 12 -40 34 -39 67zM446 474v-464c0 -154 -76 -245 -202 -245c-61 0 -111 19 -148 56l8 8c26 -24 69 -41 108 -41c83 0 126 77 126 222
v32c-32 -40 -69 -58 -119 -58c-118 0 -176 81 -176 245c0 158 68 245 190 245c38 0 73 -11 105 -34v34h108zM236 7c40 0 72 19 102 59v359c-25 18 -53 26 -88 26c-61 0 -89 -76 -89 -222s23 -222 75 -222z" />
    <glyph glyph-name="gdotaccent" unicode="&#x121;" horiz-adv-x="515" 
d="M256 573c-33 0 -59 26 -59 59s26 59 59 59s60 -26 60 -59s-27 -59 -60 -59zM446 474v-464c0 -154 -76 -245 -202 -245c-61 0 -111 19 -148 56l8 8c26 -24 69 -41 108 -41c83 0 126 77 126 222v32c-32 -40 -69 -58 -119 -58c-118 0 -176 81 -176 245c0 158 68 245 190 245
c38 0 73 -11 105 -34v34h108zM236 7c40 0 72 19 102 59v359c-25 18 -53 26 -88 26c-61 0 -89 -76 -89 -222s23 -222 75 -222z" />
    <glyph glyph-name="h" unicode="h" horiz-adv-x="509" 
d="M285 475c117 0 155 -54 155 -223v-252h-110v230c0 179 -15 222 -85 222c-21 0 -43 -11 -69 -35v-417h-107v683h107v-247c32 26 68 39 109 39z" />
    <glyph glyph-name="hbar" unicode="&#x127;" horiz-adv-x="509" 
d="M435 341c3 -25 5 -55 5 -89v-252h-110v230c0 39 -1 72 -3 99h-151v-329h-107v683h107v-247c32 26 68 39 109 39c89 0 132 -31 148 -120h2v-14zM176 355h149c-9 76 -31 97 -80 97c-21 0 -43 -11 -69 -35v-62z" />
    <glyph glyph-name="i" unicode="i" horiz-adv-x="256" 
d="M128 564c-33 0 -59 26 -59 60c0 33 26 59 59 59s59 -26 59 -59c0 -35 -26 -60 -59 -60zM77 0v459h103v-459h-103z" />
    <glyph glyph-name="dotlessi" unicode="&#x131;" horiz-adv-x="244" 
d="M70 0v459h103v-459h-103z" />
    <glyph glyph-name="iacute" unicode="&#xed;" horiz-adv-x="244" 
d="M100 700h97v-17c-30 -56 -76 -95 -138 -115l-13 18c33 24 54 68 54 114zM70 0v459h103v-459h-103z" />
    <glyph glyph-name="uni01D0" unicode="&#x1d0;" horiz-adv-x="244" 
d="M160 548h-74l-4 2c-9 18 -40 93 -114 131l6 12c62 -13 109 -36 148 -71c39 35 86 58 148 71l6 -12c-66 -34 -98 -97 -111 -123zM70 0v459h103v-459h-103z" />
    <glyph glyph-name="icircumflex" unicode="&#xee;" horiz-adv-x="244" 
d="M-32 550c72 37 116 127 118 133h72c2 -6 46 -96 118 -133l-6 -12c-62 13 -109 36 -148 71c-39 -35 -86 -58 -148 -71zM70 0v459h103v-459h-103z" />
    <glyph glyph-name="idieresis" unicode="&#xef;" horiz-adv-x="244" 
d="M2 573c-33 0 -60 26 -60 59s27 59 60 59s59 -26 59 -59s-26 -59 -59 -59zM242 573c-33 0 -59 26 -59 59s26 59 59 59s60 -26 60 -59s-27 -59 -60 -59zM70 0v459h103v-459h-103z" />
    <glyph glyph-name="i.loclTRK" horiz-adv-x="244" 
d="M121 573c-33 0 -59 26 -59 59s26 59 59 59s60 -26 60 -59s-27 -59 -60 -59zM70 0v459h103v-459h-103z" />
    <glyph glyph-name="igrave" unicode="&#xec;" horiz-adv-x="244" 
d="M144 700c0 -40 17 -87 54 -114l-13 -17c-77 24 -116 72 -139 114v17h98zM70 0v459h103v-459h-103z" />
    <glyph glyph-name="imacron" unicode="&#x12b;" horiz-adv-x="244" 
d="M245 629h-247v54h247v-54zM70 0v459h103v-459h-103z" />
    <glyph glyph-name="iogonek" unicode="&#x12f;" horiz-adv-x="244" 
d="M121 573c-33 0 -59 26 -59 59s26 59 59 59s60 -26 60 -59s-27 -59 -60 -59zM210 -149l8 -4c-8 -19 -33 -73 -85 -73c-62 0 -96 34 -96 94s41 106 70 132h-37v459h103v-459h-41c-16 -25 -40 -69 -40 -109c0 -46 22 -73 62 -73c25 0 45 21 56 33z" />
    <glyph glyph-name="j" unicode="j" horiz-adv-x="277" 
d="M148 565c-33 0 -59 25 -59 59s26 59 59 59c34 0 60 -25 60 -59s-26 -59 -60 -59zM94 459h109v-517c0 -155 -115 -177 -163 -177c-33 0 -64 5 -88 13l5 13c14 -4 26 -6 39 -6c58 0 98 64 98 157v517z" />
    <glyph glyph-name="k" unicode="k" horiz-adv-x="454" 
d="M208 237l-31 -34v-203h-108v683h108v-444l217 238l17 -18l-126 -141l152 -318h-118z" />
    <glyph glyph-name="uni0137" unicode="&#x137;" horiz-adv-x="454" 
d="M208 237l-31 -34v-203h-108v683h108v-444l217 238l17 -18l-126 -141l152 -318h-118zM293 -131c-1 -41 -52 -144 -86 -191l-6 4c12 21 18 53 17 84c-1 27 -35 49 -43 57c-21 26 -26 54 -14 80c16 34 57 49 93 33c27 -12 40 -34 39 -67z" />
    <glyph glyph-name="l" unicode="l" horiz-adv-x="262" 
d="M176 181c0 -115 19 -181 59 -181v-13c-128 0 -166 44 -166 194v502h107v-502z" />
    <glyph glyph-name="lacute" unicode="&#x13a;" horiz-adv-x="262" 
d="M105 924h97v-17c-30 -56 -76 -95 -138 -115l-13 18c33 24 54 68 54 114zM176 181c0 -115 19 -181 59 -181v-13c-128 0 -166 44 -166 194v502h107v-502z" />
    <glyph glyph-name="lcaron" unicode="&#x13e;" horiz-adv-x="262" 
d="M165 772h-74l-4 2c-9 18 -40 93 -114 131l6 12c62 -13 109 -36 148 -71c39 35 86 58 148 71l6 -12c-66 -34 -98 -97 -111 -123zM176 181c0 -115 19 -181 59 -181v-13c-128 0 -166 44 -166 194v502h107v-502z" />
    <glyph glyph-name="uni013C" unicode="&#x13c;" horiz-adv-x="262" 
d="M176 181c0 -115 19 -181 59 -181v-13c-128 0 -166 44 -166 194v502h107v-502zM196 -131c-1 -41 -52 -144 -86 -191l-6 4c12 21 18 53 17 84c-1 27 -35 49 -43 57c-21 26 -26 54 -14 80c16 34 57 49 93 33c27 -12 40 -34 39 -67z" />
    <glyph glyph-name="lslash" unicode="&#x142;" horiz-adv-x="262" 
d="M176 181c0 -115 19 -181 59 -181v-13c-128 0 -166 44 -166 194v77l-120 -146l-17 17l137 166v388h107v-258l120 146l18 -16l-138 -167v-207z" />
    <glyph glyph-name="m" unicode="m" horiz-adv-x="747" 
d="M575 475c73 0 103 -39 103 -134v-341h-103v341c0 55 -12 78 -45 78c-20 0 -39 -19 -71 -55c-17 -18 -20 -21 -34 -35v-329h-103v341c0 55 -12 78 -45 78c-20 0 -39 -19 -71 -55c-17 -18 -20 -21 -34 -35v-329h-103v459h103v-118c70 99 92 134 150 134
c73 0 103 -39 103 -134c70 99 92 134 150 134z" />
    <glyph glyph-name="n" unicode="n" horiz-adv-x="527" 
d="M355 475c73 0 103 -39 103 -134v-341h-103v341c0 55 -12 78 -45 78c-28 0 -86 -38 -138 -90v-329h-103v459h103v-118c68 95 121 134 183 134z" />
    <glyph glyph-name="nacute" unicode="&#x144;" horiz-adv-x="527" 
d="M242 700h97v-17c-30 -56 -76 -95 -138 -115l-13 18c33 24 54 68 54 114zM355 475c73 0 103 -39 103 -134v-341h-103v341c0 55 -12 78 -45 78c-28 0 -86 -38 -138 -90v-329h-103v459h103v-118c68 95 121 134 183 134z" />
    <glyph glyph-name="ncaron" unicode="&#x148;" horiz-adv-x="527" 
d="M302 548h-74l-4 2c-9 18 -40 93 -114 131l6 12c62 -13 109 -36 148 -71c39 35 86 58 148 71l6 -12c-66 -34 -98 -97 -111 -123zM355 475c73 0 103 -39 103 -134v-341h-103v341c0 55 -12 78 -45 78c-28 0 -86 -38 -138 -90v-329h-103v459h103v-118c68 95 121 134 183 134z
" />
    <glyph glyph-name="uni0146" unicode="&#x146;" horiz-adv-x="527" 
d="M355 475c73 0 103 -39 103 -134v-341h-103v341c0 55 -12 78 -45 78c-28 0 -86 -38 -138 -90v-329h-103v459h103v-118c68 95 121 134 183 134zM333 -131c-1 -41 -52 -144 -86 -191l-6 4c12 21 18 53 17 84c-1 27 -35 49 -43 57c-21 26 -26 54 -14 80c16 34 57 49 93 33
c27 -12 40 -34 39 -67z" />
    <glyph glyph-name="eng" unicode="&#x14b;" horiz-adv-x="529" 
d="M356 475c80 0 103 -49 103 -134v-341c0 -128 -93 -235 -232 -235v30c85 0 129 103 129 205v341c0 61 -17 78 -45 78c-30 0 -92 -44 -138 -90v-329h-103v459h103v-118c70 99 124 134 183 134z" />
    <glyph glyph-name="ntilde" unicode="&#xf1;" horiz-adv-x="527" 
d="M395 690c0 -97 -20 -132 -77 -132c-23 0 -40 14 -55 27c-16 13 -30 25 -52 25c-36 0 -62 -21 -62 -49h-16c0 96 21 132 78 132c22 0 38 -13 54 -26s31 -26 53 -26c36 0 61 21 61 49h16zM355 475c73 0 103 -39 103 -134v-341h-103v341c0 55 -12 78 -45 78
c-28 0 -86 -38 -138 -90v-329h-103v459h103v-118c68 95 121 134 183 134z" />
    <glyph glyph-name="o" unicode="o" horiz-adv-x="501" 
d="M251 475c130 0 218 -100 218 -246s-88 -245 -218 -245s-219 99 -219 245c0 147 88 246 219 246zM251 7c63 0 100 87 100 222s-37 222 -100 222s-101 -88 -101 -222s38 -222 101 -222z" />
    <glyph glyph-name="oacute" unicode="&#xf3;" horiz-adv-x="501" 
d="M229 700h97v-17c-30 -56 -76 -95 -138 -115l-13 18c33 24 54 68 54 114zM251 475c130 0 218 -100 218 -246s-88 -245 -218 -245s-219 99 -219 245c0 147 88 246 219 246zM251 7c63 0 100 87 100 222s-37 222 -100 222s-101 -88 -101 -222s38 -222 101 -222z" />
    <glyph glyph-name="uni01D2" unicode="&#x1d2;" horiz-adv-x="501" 
d="M289 548h-74l-4 2c-9 18 -40 93 -114 131l6 12c62 -13 109 -36 148 -71c39 35 86 58 148 71l6 -12c-66 -34 -98 -97 -111 -123zM251 475c130 0 218 -100 218 -246s-88 -245 -218 -245s-219 99 -219 245c0 147 88 246 219 246zM251 7c63 0 100 87 100 222
s-37 222 -100 222s-101 -88 -101 -222s38 -222 101 -222z" />
    <glyph glyph-name="ocircumflex" unicode="&#xf4;" horiz-adv-x="501" 
d="M97 550c72 37 116 127 118 133h72c2 -6 46 -96 118 -133l-6 -12c-62 13 -109 36 -148 71c-39 -35 -86 -58 -148 -71zM251 475c130 0 218 -100 218 -246s-88 -245 -218 -245s-219 99 -219 245c0 147 88 246 219 246zM251 7c63 0 100 87 100 222s-37 222 -100 222
s-101 -88 -101 -222s38 -222 101 -222z" />
    <glyph glyph-name="odieresis" unicode="&#xf6;" horiz-adv-x="501" 
d="M131 573c-33 0 -60 26 -60 59s27 59 60 59s59 -26 59 -59s-26 -59 -59 -59zM371 573c-33 0 -59 26 -59 59s26 59 59 59s60 -26 60 -59s-27 -59 -60 -59zM251 475c130 0 218 -100 218 -246s-88 -245 -218 -245s-219 99 -219 245c0 147 88 246 219 246zM251 7
c63 0 100 87 100 222s-37 222 -100 222s-101 -88 -101 -222s38 -222 101 -222z" />
    <glyph glyph-name="ograve" unicode="&#xf2;" horiz-adv-x="501" 
d="M273 700c0 -40 17 -87 54 -114l-13 -17c-77 24 -116 72 -139 114v17h98zM251 475c130 0 218 -100 218 -246s-88 -245 -218 -245s-219 99 -219 245c0 147 88 246 219 246zM251 7c63 0 100 87 100 222s-37 222 -100 222s-101 -88 -101 -222s38 -222 101 -222z" />
    <glyph glyph-name="ohungarumlaut" unicode="&#x151;" horiz-adv-x="501" 
d="M258 664c-30 -62 -76 -104 -138 -126l-14 19c34 28 55 76 55 126h97v-19zM395 683v-19c-30 -62 -76 -104 -138 -126l-14 19c34 27 55 75 55 126h97zM251 475c130 0 218 -100 218 -246s-88 -245 -218 -245s-219 99 -219 245c0 147 88 246 219 246zM251 7
c63 0 100 87 100 222s-37 222 -100 222s-101 -88 -101 -222s38 -222 101 -222z" />
    <glyph glyph-name="omacron" unicode="&#x14d;" horiz-adv-x="501" 
d="M374 629h-247v54h247v-54zM251 475c130 0 218 -100 218 -246s-88 -245 -218 -245s-219 99 -219 245c0 147 88 246 219 246zM251 7c63 0 100 87 100 222s-37 222 -100 222s-101 -88 -101 -222s38 -222 101 -222z" />
    <glyph glyph-name="oslash" unicode="&#xf8;" horiz-adv-x="501" 
d="M392 424c48 -43 77 -112 77 -195c0 -146 -88 -245 -218 -245c-39 0 -74 9 -104 25l-75 -126h-41l86 146c-53 42 -85 113 -85 200c0 147 88 246 219 246c42 0 80 -11 112 -30l77 130h41zM150 229c0 -47 5 -88 13 -122l164 277c-17 43 -43 67 -76 67
c-63 0 -101 -88 -101 -222zM251 7c63 0 100 87 100 222c0 41 -3 78 -10 109l-162 -274c17 -37 42 -57 72 -57z" />
    <glyph glyph-name="otilde" unicode="&#xf5;" horiz-adv-x="501" 
d="M382 690c0 -97 -20 -132 -77 -132c-23 0 -40 14 -55 27c-16 13 -30 25 -52 25c-36 0 -62 -21 -62 -49h-16c0 96 21 132 78 132c22 0 38 -13 54 -26s31 -26 53 -26c36 0 61 21 61 49h16zM251 475c130 0 218 -100 218 -246s-88 -245 -218 -245s-219 99 -219 245
c0 147 88 246 219 246zM251 7c63 0 100 87 100 222s-37 222 -100 222s-101 -88 -101 -222s38 -222 101 -222z" />
    <glyph glyph-name="oe" unicode="&#x153;" horiz-adv-x="795" 
d="M758 222h-285c1 -96 28 -215 116 -215c35 0 80 15 108 42l8 -8c-35 -36 -85 -57 -149 -57c-65 0 -114 46 -147 86c-37 -40 -89 -86 -154 -86c-139 0 -219 110 -219 245c0 136 80 246 219 246c65 0 117 -50 154 -90c33 40 82 90 147 90c114 0 199 -106 202 -238v-15z
M556 459c-45 0 -81 -99 -83 -222h167c-2 123 -39 222 -84 222zM255 7c77 0 100 126 100 222c0 97 -23 222 -100 222c-78 0 -101 -125 -101 -222c0 -96 23 -222 101 -222z" />
    <glyph glyph-name="p" unicode="p" horiz-adv-x="509" 
d="M276 475c123 0 190 -86 190 -246c0 -164 -58 -245 -176 -245c-50 0 -88 19 -119 59v-278h-101v710h101v-67c31 43 68 67 105 67zM273 7c52 0 75 76 75 222c0 148 -28 220 -89 220c-29 0 -55 -20 -88 -67v-315c31 -41 63 -60 102 -60z" />
    <glyph glyph-name="thorn" unicode="&#xfe;" horiz-adv-x="600" 
d="M178 459c203 0 328 -42 328 -233c0 -242 -297 -226 -328 -226v-235h-108v918h108v-224zM178 19c40 0 209 25 209 207c0 162 -86 214 -209 214v-421z" />
    <glyph glyph-name="q" unicode="q" horiz-adv-x="508" 
d="M439 475v-710h-101v277c-32 -40 -69 -58 -119 -58c-118 0 -176 81 -176 245c0 158 68 246 190 246c37 0 74 -24 105 -67v67h101zM236 7c40 0 72 19 102 60v315c-34 48 -59 67 -88 67c-61 0 -89 -75 -89 -220c0 -146 23 -222 75 -222z" />
    <glyph glyph-name="r" unicode="r" horiz-adv-x="352" 
d="M337 442c-92 0 -160 -81 -160 -156v-286h-107v459h107l1 -80c49 58 102 80 159 80v-17z" />
    <glyph glyph-name="racute" unicode="&#x155;" horiz-adv-x="352" 
d="M152 700h97v-17c-30 -56 -76 -95 -138 -115l-13 18c33 24 54 68 54 114zM337 442c-92 0 -160 -81 -160 -156v-286h-107v459h107l1 -80c49 58 102 80 159 80v-17z" />
    <glyph glyph-name="rcaron" unicode="&#x159;" horiz-adv-x="352" 
d="M212 548h-74l-4 2c-9 18 -40 93 -114 131l6 12c62 -13 109 -36 148 -71c39 35 86 58 148 71l6 -12c-66 -34 -98 -97 -111 -123zM337 442c-92 0 -160 -81 -160 -156v-286h-107v459h107l1 -80c49 58 102 80 159 80v-17z" />
    <glyph glyph-name="uni0157" unicode="&#x157;" horiz-adv-x="352" 
d="M337 442c-92 0 -160 -81 -160 -156v-286h-107v459h107l1 -80c49 58 102 80 159 80v-17zM243 -131c-1 -41 -52 -144 -86 -191l-6 4c12 21 18 53 17 84c-1 27 -35 49 -43 57c-21 26 -26 54 -14 80c16 34 57 49 93 33c27 -12 40 -34 39 -67z" />
    <glyph glyph-name="s" unicode="s" horiz-adv-x="386" 
d="M228 262c89 -49 126 -101 126 -156c0 -75 -69 -122 -176 -122c-77 0 -123 27 -143 81l14 6c16 -39 56 -65 105 -65c55 0 89 33 86 87c-2 43 -19 62 -77 95s-128 66 -131 149c-3 94 85 138 171 138c67 0 106 -32 135 -64l-8 -7c-32 29 -71 48 -115 48
c-60 0 -87 -45 -86 -83c2 -64 57 -84 99 -107z" />
    <glyph glyph-name="sacute" unicode="&#x15b;" horiz-adv-x="386" 
d="M171 700h97v-17c-30 -56 -76 -95 -138 -115l-13 18c33 24 54 68 54 114zM228 262c89 -49 126 -101 126 -156c0 -75 -69 -122 -176 -122c-77 0 -123 27 -143 81l14 6c16 -39 56 -65 105 -65c55 0 89 33 86 87c-2 43 -19 62 -77 95s-128 66 -131 149c-3 94 85 138 171 138
c67 0 106 -32 135 -64l-8 -7c-32 29 -71 48 -115 48c-60 0 -87 -45 -86 -83c2 -64 57 -84 99 -107z" />
    <glyph glyph-name="scaron" unicode="&#x161;" horiz-adv-x="386" 
d="M231 548h-74l-4 2c-9 18 -40 93 -114 131l6 12c62 -13 109 -36 148 -71c39 35 86 58 148 71l6 -12c-66 -34 -98 -97 -111 -123zM228 262c89 -49 126 -101 126 -156c0 -75 -69 -122 -176 -122c-77 0 -123 27 -143 81l14 6c16 -39 56 -65 105 -65c55 0 89 33 86 87
c-2 43 -19 62 -77 95s-128 66 -131 149c-3 94 85 138 171 138c67 0 106 -32 135 -64l-8 -7c-32 29 -71 48 -115 48c-60 0 -87 -45 -86 -83c2 -64 57 -84 99 -107z" />
    <glyph glyph-name="scedilla" unicode="&#x15f;" horiz-adv-x="386" 
d="M354 106c0 -63 -48 -106 -127 -118c27 -27 57 -68 57 -120c0 -60 -34 -94 -96 -94c-52 0 -77 54 -85 73l8 4c11 -12 31 -33 56 -33c40 0 62 27 62 73c0 32 -16 68 -31 94c-6 -1 -13 -1 -20 -1c-77 0 -123 27 -143 81l14 6c16 -39 56 -65 105 -65c10 0 20 1 29 3
c-1 2 -2 4 -3 5l9 5c2 -1 4 -3 7 -5c30 13 46 41 44 79c-2 43 -19 62 -77 95s-128 66 -131 149c-3 94 85 138 171 138c67 0 106 -32 135 -64l-8 -7c-32 29 -71 48 -115 48c-60 0 -87 -45 -86 -83c2 -64 57 -84 99 -107c89 -49 126 -101 126 -156z" />
    <glyph glyph-name="uni0219" unicode="&#x219;" horiz-adv-x="386" 
d="M228 262c89 -49 126 -101 126 -156c0 -75 -69 -122 -176 -122c-77 0 -123 27 -143 81l14 6c16 -39 56 -65 105 -65c55 0 89 33 86 87c-2 43 -19 62 -77 95s-128 66 -131 149c-3 94 85 138 171 138c67 0 106 -32 135 -64l-8 -7c-32 29 -71 48 -115 48
c-60 0 -87 -45 -86 -83c2 -64 57 -84 99 -107zM262 -131c-1 -41 -52 -144 -86 -191l-6 4c12 21 18 53 17 84c-1 27 -35 49 -43 57c-21 26 -26 54 -14 80c16 34 57 49 93 33c27 -12 40 -34 39 -67z" />
    <glyph glyph-name="germandbls" unicode="&#xdf;" horiz-adv-x="593" 
d="M332 339c97 -17 228 -63 228 -185c0 -123 -113 -154 -193 -154c-41 0 -79 2 -135 33l8 12c12 -9 54 -29 100 -29c71 0 101 69 101 153c0 143 -169 165 -209 165v15c40 0 180 16 180 159c0 93 -52 159 -121 159c-74 0 -113 -72 -113 -192v-475h-108v475
c0 137 102 208 240 208c137 0 220 -79 220 -175c0 -118 -110 -157 -198 -169z" />
    <glyph glyph-name="t" unicode="t" horiz-adv-x="304" 
d="M177 444v-280c0 -116 13 -158 58 -158c14 0 44 7 44 7v-13c-24 -8 -55 -13 -88 -13c-81 0 -122 59 -122 177v407h108v-112h109v-15h-109z" />
    <glyph glyph-name="tbar" unicode="&#x167;" horiz-adv-x="304" 
d="M333 217h-156v-53c0 -116 13 -158 58 -158c14 0 44 7 44 7v-13c-24 -8 -55 -13 -88 -13c-81 0 -122 59 -122 177v53h-97v26h97v328h108v-112h109v-15h-109v-201h156v-26z" />
    <glyph glyph-name="tcaron" unicode="&#x165;" horiz-adv-x="304" 
d="M191 616h-74l-4 2c-9 18 -40 93 -114 131l6 12c62 -13 109 -36 148 -71c39 35 86 58 148 71l6 -12c-66 -34 -98 -97 -111 -123zM177 444v-280c0 -116 13 -158 58 -158c14 0 44 7 44 7v-13c-24 -8 -55 -13 -88 -13c-81 0 -122 59 -122 177v407h108v-112h109v-15h-109z" />
    <glyph glyph-name="uni0163" unicode="&#x163;" horiz-adv-x="304" 
d="M286 444h-109v-280c0 -116 13 -158 58 -158c14 0 44 7 44 7v-13c-24 -8 -55 -13 -88 -13h-3c27 -27 56 -68 56 -119c0 -60 -34 -94 -96 -94c-52 0 -77 54 -85 73l8 4c11 -12 31 -33 56 -33c40 0 62 27 62 73c0 36 -20 75 -35 101c-56 16 -85 74 -85 172v407h108v-112h109
v-15z" />
    <glyph glyph-name="uni021B" unicode="&#x21b;" horiz-adv-x="304" 
d="M177 444v-280c0 -116 13 -158 58 -158c14 0 44 7 44 7v-13c-24 -8 -55 -13 -88 -13c-81 0 -122 59 -122 177v407h108v-112h109v-15h-109zM222 -131c-1 -41 -52 -144 -86 -191l-6 4c12 21 18 53 17 84c-1 27 -35 49 -43 57c-21 26 -26 54 -14 80c16 34 57 49 93 33
c27 -12 40 -34 39 -67z" />
    <glyph glyph-name="u" unicode="u" horiz-adv-x="527" 
d="M458 459v-459h-103v118c-68 -95 -122 -134 -183 -134c-73 0 -103 39 -103 134v341h103v-341c0 -56 13 -98 45 -98c45 0 125 99 138 112v327h103z" />
    <glyph glyph-name="uacute" unicode="&#xfa;" horiz-adv-x="527" 
d="M242 700h97v-17c-30 -56 -76 -95 -138 -115l-13 18c33 24 54 68 54 114zM458 459v-459h-103v118c-68 -95 -122 -134 -183 -134c-73 0 -103 39 -103 134v341h103v-341c0 -56 13 -98 45 -98c45 0 125 99 138 112v327h103z" />
    <glyph glyph-name="uni01D4" unicode="&#x1d4;" horiz-adv-x="527" 
d="M302 548h-74l-4 2c-9 18 -40 93 -114 131l6 12c62 -13 109 -36 148 -71c39 35 86 58 148 71l6 -12c-66 -34 -98 -97 -111 -123zM458 459v-459h-103v118c-68 -95 -122 -134 -183 -134c-73 0 -103 39 -103 134v341h103v-341c0 -56 13 -98 45 -98c45 0 125 99 138 112v327
h103z" />
    <glyph glyph-name="ucircumflex" unicode="&#xfb;" horiz-adv-x="527" 
d="M110 550c72 37 116 127 118 133h72c2 -6 46 -96 118 -133l-6 -12c-62 13 -109 36 -148 71c-39 -35 -86 -58 -148 -71zM458 459v-459h-103v118c-68 -95 -122 -134 -183 -134c-73 0 -103 39 -103 134v341h103v-341c0 -56 13 -98 45 -98c45 0 125 99 138 112v327h103z" />
    <glyph glyph-name="udieresis" unicode="&#xfc;" horiz-adv-x="527" 
d="M144 573c-33 0 -60 26 -60 59s27 59 60 59s59 -26 59 -59s-26 -59 -59 -59zM384 573c-33 0 -59 26 -59 59s26 59 59 59s60 -26 60 -59s-27 -59 -60 -59zM458 459v-459h-103v118c-68 -95 -122 -134 -183 -134c-73 0 -103 39 -103 134v341h103v-341c0 -56 13 -98 45 -98
c45 0 125 99 138 112v327h103z" />
    <glyph glyph-name="uni01D8" unicode="&#x1d8;" horiz-adv-x="527" 
d="M242 932h97v-17c-30 -56 -76 -95 -138 -115l-13 18c33 24 54 68 54 114zM144 573c-33 0 -60 26 -60 59s27 59 60 59s59 -26 59 -59s-26 -59 -59 -59zM384 573c-33 0 -59 26 -59 59s26 59 59 59s60 -26 60 -59s-27 -59 -60 -59zM458 459v-459h-103v118
c-68 -95 -122 -134 -183 -134c-73 0 -103 39 -103 134v341h103v-341c0 -56 13 -98 45 -98c45 0 125 99 138 112v327h103z" />
    <glyph glyph-name="uni01DA" unicode="&#x1da;" horiz-adv-x="527" 
d="M302 780h-74l-4 2c-9 18 -40 93 -114 131l6 12c62 -13 109 -36 148 -71c39 35 86 58 148 71l6 -12c-66 -34 -98 -97 -111 -123zM144 573c-33 0 -60 26 -60 59s27 59 60 59s59 -26 59 -59s-26 -59 -59 -59zM384 573c-33 0 -59 26 -59 59s26 59 59 59s60 -26 60 -59
s-27 -59 -60 -59zM458 459v-459h-103v118c-68 -95 -122 -134 -183 -134c-73 0 -103 39 -103 134v341h103v-341c0 -56 13 -98 45 -98c45 0 125 99 138 112v327h103z" />
    <glyph glyph-name="uni01DC" unicode="&#x1dc;" horiz-adv-x="527" 
d="M286 932c0 -40 17 -87 54 -114l-13 -17c-77 24 -116 72 -139 114v17h98zM144 573c-33 0 -60 26 -60 59s27 59 60 59s59 -26 59 -59s-26 -59 -59 -59zM384 573c-33 0 -59 26 -59 59s26 59 59 59s60 -26 60 -59s-27 -59 -60 -59zM458 459v-459h-103v118
c-68 -95 -122 -134 -183 -134c-73 0 -103 39 -103 134v341h103v-341c0 -56 13 -98 45 -98c45 0 125 99 138 112v327h103z" />
    <glyph glyph-name="uni01D6" unicode="&#x1d6;" horiz-adv-x="527" 
d="M387 861h-247v54h247v-54zM144 573c-33 0 -60 26 -60 59s27 59 60 59s59 -26 59 -59s-26 -59 -59 -59zM384 573c-33 0 -59 26 -59 59s26 59 59 59s60 -26 60 -59s-27 -59 -60 -59zM458 459v-459h-103v118c-68 -95 -122 -134 -183 -134c-73 0 -103 39 -103 134v341h103
v-341c0 -56 13 -98 45 -98c45 0 125 99 138 112v327h103z" />
    <glyph glyph-name="ugrave" unicode="&#xf9;" horiz-adv-x="527" 
d="M286 700c0 -40 17 -87 54 -114l-13 -17c-77 24 -116 72 -139 114v17h98zM458 459v-459h-103v118c-68 -95 -122 -134 -183 -134c-73 0 -103 39 -103 134v341h103v-341c0 -56 13 -98 45 -98c45 0 125 99 138 112v327h103z" />
    <glyph glyph-name="uhungarumlaut" unicode="&#x171;" horiz-adv-x="527" 
d="M271 664c-30 -62 -76 -104 -138 -126l-14 19c34 28 55 76 55 126h97v-19zM408 683v-19c-30 -62 -76 -104 -138 -126l-14 19c34 27 55 75 55 126h97zM458 459v-459h-103v118c-68 -95 -122 -134 -183 -134c-73 0 -103 39 -103 134v341h103v-341c0 -56 13 -98 45 -98
c45 0 125 99 138 112v327h103z" />
    <glyph glyph-name="umacron" unicode="&#x16b;" horiz-adv-x="527" 
d="M387 629h-247v54h247v-54zM458 459v-459h-103v118c-68 -95 -122 -134 -183 -134c-73 0 -103 39 -103 134v341h103v-341c0 -56 13 -98 45 -98c45 0 125 99 138 112v327h103z" />
    <glyph glyph-name="uogonek" unicode="&#x173;" horiz-adv-x="527" 
d="M465 -149l8 -4c-8 -19 -33 -73 -85 -73c-62 0 -96 34 -96 94s41 106 70 132h-7v118c-68 -95 -122 -134 -183 -134c-73 0 -103 39 -103 134v341h103v-341c0 -56 13 -98 45 -98c45 0 125 99 138 112v327h103v-459h-71c-16 -25 -40 -69 -40 -109c0 -46 22 -73 62 -73
c25 0 45 21 56 33z" />
    <glyph glyph-name="uring" unicode="&#x16f;" horiz-adv-x="527" 
d="M264 702c40 0 72 -32 72 -72s-32 -73 -72 -73s-73 33 -73 73s33 72 73 72zM264 583c25 0 46 21 46 47c0 25 -21 46 -46 46s-46 -21 -46 -46c0 -26 20 -47 46 -47zM458 459v-459h-103v118c-68 -95 -122 -134 -183 -134c-73 0 -103 39 -103 134v341h103v-341
c0 -56 13 -98 45 -98c45 0 125 99 138 112v327h103z" />
    <glyph glyph-name="v" unicode="v" horiz-adv-x="429" 
d="M400 459l-136 -459h-124l-136 459h24l127 -428l127 428h118z" />
    <glyph glyph-name="w" unicode="w" horiz-adv-x="706" 
d="M577 0h-136l-91 417l-92 -417h-136l-100 459h118l93 -422l92 422h134l92 -422l92 422h34z" />
    <glyph glyph-name="wacute" unicode="&#x1e83;" horiz-adv-x="706" 
d="M318 700h97v-17c-30 -56 -76 -95 -138 -115l-13 18c33 24 54 68 54 114zM577 0h-136l-91 417l-92 -417h-136l-100 459h118l93 -422l92 422h134l92 -422l92 422h34z" />
    <glyph glyph-name="wcircumflex" unicode="&#x175;" horiz-adv-x="706" 
d="M186 550c72 37 116 127 118 133h72c2 -6 46 -96 118 -133l-6 -12c-62 13 -109 36 -148 71c-39 -35 -86 -58 -148 -71zM577 0h-136l-91 417l-92 -417h-136l-100 459h118l93 -422l92 422h134l92 -422l92 422h34z" />
    <glyph glyph-name="wdieresis" unicode="&#x1e85;" horiz-adv-x="706" 
d="M220 573c-33 0 -60 26 -60 59s27 59 60 59s59 -26 59 -59s-26 -59 -59 -59zM460 573c-33 0 -59 26 -59 59s26 59 59 59s60 -26 60 -59s-27 -59 -60 -59zM577 0h-136l-91 417l-92 -417h-136l-100 459h118l93 -422l92 422h134l92 -422l92 422h34z" />
    <glyph glyph-name="wgrave" unicode="&#x1e81;" horiz-adv-x="706" 
d="M362 700c0 -40 17 -87 54 -114l-13 -17c-77 24 -116 72 -139 114v17h98zM577 0h-136l-91 417l-92 -417h-136l-100 459h118l93 -422l92 422h134l92 -422l92 422h34z" />
    <glyph glyph-name="x" unicode="x" horiz-adv-x="397" 
d="M250 0l-86 166l-112 -166h-30l129 193l-138 266h118l87 -167l112 167h30l-129 -192l138 -267h-119z" />
    <glyph glyph-name="y" unicode="y" horiz-adv-x="394" 
d="M382 459l-103 -379l-44 -161l-25 -93c-11 -37 -21 -61 -82 -61v20c38 0 49 10 63 65l22 86l-198 523h108l132 -355l97 355h30z" />
    <glyph glyph-name="yacute" unicode="&#xfd;" horiz-adv-x="394" 
d="M177 700h97v-17c-30 -56 -76 -95 -138 -115l-13 18c33 24 54 68 54 114zM382 459l-103 -379l-44 -161l-25 -93c-11 -37 -21 -61 -82 -61v20c38 0 49 10 63 65l22 86l-198 523h108l132 -355l97 355h30z" />
    <glyph glyph-name="ycircumflex" unicode="&#x177;" horiz-adv-x="394" 
d="M45 550c72 37 116 127 118 133h72c2 -6 46 -96 118 -133l-6 -12c-62 13 -109 36 -148 71c-39 -35 -86 -58 -148 -71zM382 459l-103 -379l-44 -161l-25 -93c-11 -37 -21 -61 -82 -61v20c38 0 49 10 63 65l22 86l-198 523h108l132 -355l97 355h30z" />
    <glyph glyph-name="ydieresis" unicode="&#xff;" horiz-adv-x="394" 
d="M79 573c-33 0 -60 26 -60 59s27 59 60 59s59 -26 59 -59s-26 -59 -59 -59zM319 573c-33 0 -59 26 -59 59s26 59 59 59s60 -26 60 -59s-27 -59 -60 -59zM382 459l-103 -379l-44 -161l-25 -93c-11 -37 -21 -61 -82 -61v20c38 0 49 10 63 65l22 86l-198 523h108l132 -355
l97 355h30z" />
    <glyph glyph-name="ygrave" unicode="&#x1ef3;" horiz-adv-x="394" 
d="M221 700c0 -40 17 -87 54 -114l-13 -17c-77 24 -116 72 -139 114v17h98zM382 459l-103 -379l-44 -161l-25 -93c-11 -37 -21 -61 -82 -61v20c38 0 49 10 63 65l22 86l-198 523h108l132 -355l97 355h30z" />
    <glyph glyph-name="z" unicode="z" horiz-adv-x="405" 
d="M162 21h218v-21h-355l217 438h-217v21h355z" />
    <glyph glyph-name="zacute" unicode="&#x17a;" horiz-adv-x="405" 
d="M181 700h97v-17c-30 -56 -76 -95 -138 -115l-13 18c33 24 54 68 54 114zM162 21h218v-21h-355l217 438h-217v21h355z" />
    <glyph glyph-name="zcaron" unicode="&#x17e;" horiz-adv-x="405" 
d="M241 548h-74l-4 2c-9 18 -40 93 -114 131l6 12c62 -13 109 -36 148 -71c39 35 86 58 148 71l6 -12c-66 -34 -98 -97 -111 -123zM162 21h218v-21h-355l217 438h-217v21h355z" />
    <glyph glyph-name="zdotaccent" unicode="&#x17c;" horiz-adv-x="405" 
d="M202 573c-33 0 -59 26 -59 59s26 59 59 59s60 -26 60 -59s-27 -59 -60 -59zM162 21h218v-21h-355l217 438h-217v21h355z" />
    <glyph glyph-name="a.alt1" unicode="&#xf005;" horiz-adv-x="544" 
d="M238 475c150 0 236 -70 236 -190v-285h-108v33c-27 -26 -66 -49 -136 -49c-121 0 -188 49 -188 141c0 68 61 141 202 141c45 0 86 -9 122 -27v60c0 102 -43 153 -128 153c-69 0 -110 -24 -142 -68l-12 8c33 52 90 83 154 83zM366 47v183c-29 15 -63 23 -105 23
c-63 0 -101 -50 -101 -128c0 -76 33 -127 87 -127c43 0 90 20 119 49z" />
    <glyph glyph-name="i.alt1" unicode="&#xf009;" horiz-adv-x="241" 
d="M69 0v459h103v-459h-103z" />
    <glyph glyph-name="j.alt1" unicode="&#xf008;" horiz-adv-x="275" 
d="M97 459h109v-517c0 -155 -115 -177 -163 -177c-33 0 -64 5 -88 13l5 13s25 -6 39 -6c58 0 98 64 98 157v517z" />
    <glyph glyph-name="fi.dlig" unicode="&#xfb01;" horiz-adv-x="557" 
d="M178 506v-47h301v-459h-103v444h-198v-444h-108v506c0 109 62 177 163 177c32 0 50 -6 73 -13l-5 -10h-1s-20 3 -33 3c-54 0 -89 -59 -89 -157zM428 564c-33 0 -60 26 -60 60c0 33 26 59 60 59c33 0 59 -27 59 -59c0 -34 -26 -60 -59 -60z" />
    <glyph glyph-name="fl.dlig" unicode="&#xfb02;" horiz-adv-x="572" 
d="M494 165c0 -123 18 -168 59 -164v-13c-135 -2 -166 29 -166 177v279h-209v-444h-108v506c0 110 62 177 163 177c34 0 66 -5 88 -13l-2 -10h-1s-28 4 -41 4c-58 0 -99 -65 -99 -158v-46h209v223h107v-518z" />
    <glyph glyph-name="ordfeminine" unicode="&#xaa;" horiz-adv-x="425" 
d="M283 683h71v-302h-71v45c-22 -38 -50 -56 -89 -56c-81 0 -124 56 -124 162c0 100 50 161 133 161c31 0 57 -10 80 -31v21zM205 386c28 0 58 22 78 56v209c-20 19 -41 27 -69 27c-42 0 -66 -57 -66 -146c0 -87 21 -146 57 -146z" />
    <glyph glyph-name="ordmasculine" unicode="&#xba;" horiz-adv-x="414" 
d="M207 683c85 0 137 -47 137 -124s-52 -124 -137 -124s-137 47 -137 124s52 124 137 124zM207 648c-37 0 -62 -37 -62 -91c0 -53 23 -87 62 -87s62 34 62 87c0 54 -25 91 -62 91z" />
    <glyph glyph-name="uni03A9" unicode="&#x3a9;" horiz-adv-x="813" 
d="M743 366c0 -137 -101 -259 -214 -288h196v-78h-242v78c92 23 169 119 169 274c0 127 -78 242 -246 242c-167 0 -245 -115 -245 -242c0 -155 77 -251 169 -274v-78h-242v78h196c-113 29 -214 151 -214 288c0 203 129 348 336 348c208 0 337 -145 337 -348z" />
    <glyph glyph-name="uni03A9" unicode="&#x3c9;" horiz-adv-x="813" 
d="M743 366c0 -137 -101 -259 -214 -288h196v-78h-242v78c92 23 169 119 169 274c0 127 -78 242 -246 242c-167 0 -245 -115 -245 -242c0 -155 77 -251 169 -274v-78h-242v78h196c-113 29 -214 151 -214 288c0 203 129 348 336 348c208 0 337 -145 337 -348z" />
    <glyph glyph-name="pi" unicode="&#x3a0;" horiz-adv-x="839" 
d="M768 660h-117v-660h-108v660h-247v-660h-109v660h-117v23h698v-23z" />
    <glyph glyph-name="pi" unicode="&#x3c0;" horiz-adv-x="839" 
d="M768 660h-117v-660h-108v660h-247v-660h-109v660h-117v23h698v-23z" />
    <glyph glyph-name="zero" unicode="0" horiz-adv-x="489" 
d="M244 698c129 -3 212 -141 212 -357c0 -215 -83 -354 -212 -357c-128 3 -211 142 -211 357s83 354 211 357zM244 18c54 0 93 151 93 323s-39 323 -93 323s-93 -151 -93 -323s39 -323 93 -323z" />
    <glyph glyph-name="one" unicode="1" horiz-adv-x="300" 
d="M230 683v-683h-118v610l-89 -90l-18 18l144 145h81z" />
    <glyph glyph-name="two" unicode="2" horiz-adv-x="449" 
d="M416 475c0 -116 -99 -182 -196 -247c-71 -47 -140 -93 -170 -158h359v-70h-399c0 131 76 190 150 247c69 53 136 105 136 212c0 121 -35 178 -112 178c-78 0 -136 -70 -136 -162h-22c0 127 80 223 183 223c128 0 207 -85 207 -223z" />
    <glyph glyph-name="three" unicode="3" horiz-adv-x="495" 
d="M320 356c93 -23 142 -85 142 -181c0 -128 -71 -191 -215 -191s-214 63 -214 191c0 12 1 24 2 35h118c-1 -11 -2 -23 -2 -35c0 -89 45 -172 96 -172s96 83 96 172c0 106 -33 165 -96 172v18c59 5 90 60 90 158c0 80 -42 157 -90 157s-90 -77 -90 -157c0 -20 2 -39 5 -57
h-109c-5 21 -7 39 -7 57c0 110 74 175 201 175s202 -65 202 -175c0 -89 -45 -147 -129 -167z" />
    <glyph glyph-name="four" unicode="4" horiz-adv-x="496" 
d="M456 193h-47v-193h-119v193h-285l270 490h134v-467h47v-23zM290 216v394l-221 -394h221z" />
    <glyph glyph-name="five" unicode="5" horiz-adv-x="484" 
d="M236 441c83 0 204 -45 204 -210c0 -152 -82 -246 -204 -246c-136 0 -203 113 -203 246h114c0 -113 41 -222 89 -222c61 0 90 77 90 222c0 98 -36 143 -117 143c-61 0 -137 -33 -166 -59l31 369h326v-91h-286l-17 -203c37 37 74 51 139 51z" />
    <glyph glyph-name="six" unicode="6" horiz-adv-x="493" 
d="M264 420c140 0 196 -92 196 -184c0 -99 -46 -252 -209 -252c-71 0 -128 37 -165 107c-36 66 -54 153 -53 251c2 227 86 356 229 356c58 0 112 -31 153 -85l-11 -10c-32 41 -73 61 -123 61c-71 0 -117 -104 -128 -277c36 21 78 33 111 33zM246 19c53 0 95 96 95 211
c0 93 -28 148 -77 148c-45 0 -84 -7 -112 -21c0 -250 36 -338 94 -338z" />
    <glyph glyph-name="seven" unicode="7" horiz-adv-x="430" 
d="M10 683h410v-91c-49 -46 -205 -362 -205 -592h-119c0 194 217 522 290 592h-376v91z" />
    <glyph glyph-name="eight" unicode="8" horiz-adv-x="515" 
d="M330 356c93 -24 142 -86 142 -182c0 -127 -71 -190 -215 -190c-143 0 -214 63 -214 190c0 96 49 158 142 182c-85 20 -129 76 -129 166c0 109 75 176 201 176c127 0 202 -66 202 -176c0 -90 -44 -146 -129 -166zM167 522c0 -97 30 -158 90 -158c59 0 90 61 90 158
c0 81 -43 158 -90 158s-90 -78 -90 -158zM257 3c51 0 96 83 96 171c0 106 -32 173 -96 173s-96 -67 -96 -173c0 -87 46 -171 96 -171z" />
    <glyph glyph-name="nine" unicode="9" horiz-adv-x="513" 
d="M239 263c-140 0 -196 92 -196 184c0 99 46 252 209 252c71 0 127 -37 165 -107c36 -66 54 -153 53 -251c-2 -227 -86 -356 -229 -356c-58 0 -112 31 -153 85l11 10c32 -41 73 -61 123 -61c71 0 117 104 128 277c-36 -21 -78 -33 -111 -33zM257 664
c-53 0 -95 -96 -95 -211c0 -93 28 -148 77 -148c45 0 84 7 112 21c0 250 -36 338 -94 338z" />
    <glyph glyph-name="uni00B9" unicode="&#xb9;" horiz-adv-x="243" 
d="M129 683h44v-248h-63v210l-31 -31l-9 9z" />
    <glyph glyph-name="uni00B2" unicode="&#xb2;" horiz-adv-x="292" 
d="M222 599c0 -73 -134 -94 -134 -148h134v-16h-152v15c0 46 29 67 53 86c21 17 35 30 38 58c3 30 -2 74 -32 74c-28 0 -43 -34 -43 -81h-11c0 66 22 96 71 96c47 0 76 -32 76 -84z" />
    <glyph glyph-name="uni00B3" unicode="&#xb3;" horiz-adv-x="299" 
d="M183 559c17 -2 45 -20 45 -54c0 -47 -26 -70 -79 -70c-44 0 -79 39 -79 89v12h61v-12c0 -17 4 -80 21 -80c14 0 15 41 15 61c0 25 0 50 -21 50v9c20 0 21 28 21 50c0 25 -5 59 -15 59c-18 0 -21 -49 -21 -72v-12h-61v12c0 48 32 82 79 82c49 0 79 -26 79 -69
c0 -35 -28 -53 -45 -55z" />
    <glyph glyph-name="fraction" unicode="&#x2044;" horiz-adv-x="600" 
d="M535 683h68l-525 -683h-68z" />
    <glyph glyph-name="onehalf" unicode="&#xbd;" horiz-adv-x="918" 
d="M142 658l25 25h55v-459h-80v410l-60 -61l-12 12zM513 683h83l-260 -683h-84zM622 65h225v-65h-262c0 67 23 104 99 163c69 53 89 84 89 139c0 79 -23 117 -73 117c-52 0 -90 -46 -90 -107h-14c0 95 42 147 120 147c83 0 131 -54 131 -147c0 -76 -67 -122 -126 -162
c-56 -38 -81 -58 -99 -85z" />
    <glyph glyph-name="onequarter" unicode="&#xbc;" horiz-adv-x="904" 
d="M167 683h55v-459h-80v410l-60 -61l-12 12l72 73zM596 683l-260 -683h-84l261 683h83zM833 145v-16h-32v-129h-79v129h-192l182 330h89v-314h32zM722 145v265l-149 -265h149z" />
    <glyph glyph-name="threequarters" unicode="&#xbe;" horiz-adv-x="1006" 
d="M264 446c60 -15 91 -54 91 -116c0 -82 -46 -122 -142 -122c-80 0 -143 71 -143 163h79c0 -88 27 -151 70 -151c34 0 57 49 57 110c0 72 -26 111 -72 110v11c46 -1 72 38 72 110c0 61 -23 110 -57 110c-44 0 -70 -55 -70 -137h-79c0 88 59 149 143 149
c89 0 142 -46 142 -122c0 -62 -31 -101 -91 -115zM615 683h84l-260 -683h-84zM904 145h32v-16h-32v-129h-80v129h-191l181 330h90v-314zM824 145v265l-149 -265h149z" />
    <glyph glyph-name="period" unicode="." horiz-adv-x="189" 
d="M95 -10c-39 0 -70 31 -70 70c0 38 31 69 70 69c38 0 69 -31 69 -69c0 -39 -31 -70 -69 -70z" />
    <glyph glyph-name="comma" unicode="," horiz-adv-x="226" 
d="M143 127c27 -12 39 -33 39 -66c0 -42 -52 -145 -86 -191l-8 5s19 44 19 81c0 27 -33 47 -43 58c-26 31 -24 62 -14 80c18 34 58 49 93 33z" />
    <glyph glyph-name="colon" unicode=":" horiz-adv-x="189" 
d="M95 320c-39 0 -70 31 -70 70c0 38 31 69 70 69c38 0 69 -31 69 -69c0 -39 -31 -70 -69 -70zM95 -10c-39 0 -70 31 -70 70c0 38 31 69 70 69c38 0 69 -31 69 -69c0 -39 -31 -70 -69 -70z" />
    <glyph glyph-name="semicolon" unicode=";" horiz-adv-x="189" 
d="M95 320c-39 0 -70 31 -70 70c0 38 31 69 70 69c38 0 69 -31 69 -69c0 -39 -31 -70 -69 -70zM125 127c27 -12 39 -33 39 -66c0 -42 -52 -145 -86 -191l-8 5s19 44 19 81c0 27 -33 47 -43 58c-26 31 -24 62 -14 80c18 34 58 49 93 33z" />
    <glyph glyph-name="ellipsis" unicode="&#x2026;" horiz-adv-x="755" 
d="M140 -10c-39 0 -70 32 -70 70s31 69 70 69c38 0 69 -31 69 -69s-31 -70 -69 -70zM377 -10c-38 0 -69 32 -69 70s31 69 69 69c39 0 70 -31 70 -69s-31 -70 -70 -70zM615 -10c-38 0 -69 32 -69 70s31 69 69 69c39 0 70 -31 70 -69s-31 -70 -70 -70z" />
    <glyph glyph-name="exclam" unicode="!" horiz-adv-x="280" 
d="M90 182v501h99v-501h-99zM140 -10c-39 0 -70 31 -70 69s31 70 70 70c38 0 69 -32 69 -70s-31 -69 -69 -69z" />
    <glyph glyph-name="exclamdown" unicode="&#xa1;" horiz-adv-x="280" 
d="M140 554c-39 0 -70 31 -70 69c0 39 31 70 70 70c38 0 69 -31 69 -70c0 -38 -31 -69 -69 -69zM90 0v495h99v-495h-99z" />
    <glyph glyph-name="question" unicode="?" horiz-adv-x="426" 
d="M266 529c0 65 -18 130 -85 130c-66 0 -103 -29 -125 -51l-13 14c47 52 88 82 157 82c113 0 182 -63 182 -174c0 -132 -167 -189 -176 -347h-28c0 150 88 245 88 346zM197 -10c-39 0 -70 32 -70 70s31 70 70 70c38 0 69 -32 69 -70s-31 -70 -69 -70z" />
    <glyph glyph-name="questiondown" unicode="&#xbf;" horiz-adv-x="426" 
d="M228 554c-38 0 -69 31 -69 69c0 39 31 70 69 70c39 0 70 -31 70 -70c0 -38 -31 -69 -70 -69zM382 61c-47 -51 -88 -82 -157 -82c-113 0 -182 63 -182 175c0 132 168 189 176 346h29c0 -150 -89 -245 -89 -345c0 -65 19 -130 85 -130s103 28 125 50z" />
    <glyph glyph-name="periodcentered" unicode="&#xb7;" horiz-adv-x="280" 
d="M140 160c-39 0 -70 31 -70 70c0 38 31 69 70 69c38 0 69 -31 69 -69c0 -39 -31 -70 -69 -70z" />
    <glyph glyph-name="bullet" unicode="&#x2022;" horiz-adv-x="600" 
d="M291 94c-81 0 -147 66 -147 147c0 80 66 146 147 146c80 0 146 -66 146 -146c0 -81 -66 -147 -146 -147z" />
    <glyph glyph-name="asterisk" unicode="*" horiz-adv-x="358" 
d="M148 467l1 5s11 45 15 78c-25 -21 -59 -51 -60 -52l-3 -4l-31 54l5 1s44 14 75 26c-31 12 -75 26 -75 26l-5 1l31 54l3 -4c1 -1 35 -32 60 -52c-4 33 -15 78 -15 78l-1 5h62l-1 -5c0 -1 -11 -45 -16 -78c26 20 60 52 60 52l4 4l31 -54l-5 -1s-44 -14 -75 -26
c31 -12 75 -26 75 -26l5 -1l-31 -54l-4 4s-34 31 -60 52c5 -33 16 -77 16 -78l1 -5h-62z" />
    <glyph glyph-name="numbersign" unicode="#" horiz-adv-x="600" 
d="M447 392l-18 -128h75v-32h-79l-18 -128h-87l18 128h-104l-17 -128h-88l18 128h-77v32h81l18 128h-73v31h77l22 156h87l-21 -156h103l22 156h87l-22 -156h79v-31h-83zM360 392h-103l-18 -128h103z" />
    <glyph glyph-name="slash" unicode="/" horiz-adv-x="361" 
d="M200 683h90l-129 -683h-91z" />
    <glyph glyph-name="backslash" unicode="\" horiz-adv-x="361" 
d="M70 683h91l129 -683h-90z" />
    <glyph glyph-name="parenleft" unicode="(" horiz-adv-x="309" 
d="M70 224c0 263 153 459 153 459h16s-57 -196 -57 -459c0 -262 57 -458 57 -458h-16s-153 196 -153 458z" />
    <glyph glyph-name="parenright" unicode=")" horiz-adv-x="309" 
d="M86 683c0 0 153 -196 153 -459c0 -262 -153 -458 -153 -458h-16s56 196 56 458c0 263 -56 459 -56 459h16z" />
    <glyph glyph-name="braceleft" unicode="{" horiz-adv-x="355" 
d="M231 404c0 -94 -108 -180 -108 -180s108 -85 108 -179c0 -227 24 -259 54 -259v-20c-67 0 -141 27 -141 237c0 151 -74 221 -74 221s74 71 74 222c0 210 74 237 141 237v-20c-30 0 -54 -32 -54 -259z" />
    <glyph glyph-name="braceright" unicode="}" horiz-adv-x="355" 
d="M210 446c0 -151 75 -222 75 -222s-75 -70 -75 -221c0 -210 -73 -237 -140 -237v20c30 0 53 32 53 259c0 94 108 179 108 179s-108 86 -108 180c0 227 -23 259 -53 259v20c67 0 140 -27 140 -237z" />
    <glyph glyph-name="bracketleft" unicode="[" horiz-adv-x="344" 
d="M173 660v-871h101v-23h-204v917h204v-23h-101z" />
    <glyph glyph-name="bracketright" unicode="]" horiz-adv-x="344" 
d="M274 683v-917h-204v23h101v871h-101v23h204z" />
    <glyph glyph-name="hyphen" unicode="-" horiz-adv-x="418" 
d="M70 191v77h278v-77h-278z" />
    <glyph glyph-name="uni00AD" unicode="&#xad;" horiz-adv-x="1745" 
 />
    <glyph glyph-name="endash" unicode="&#x2013;" horiz-adv-x="522" 
d="M50 191v77h422v-77h-422z" />
    <glyph glyph-name="emdash" unicode="&#x2014;" horiz-adv-x="774" 
d="M50 191v77h674v-77h-674z" />
    <glyph glyph-name="underscore" unicode="_" horiz-adv-x="513" 
d="M443 0h-373v54h373v-54z" />
    <glyph glyph-name="quotesinglbase" unicode="&#x201a;" horiz-adv-x="189" 
d="M125 127c27 -12 39 -33 39 -66c0 -42 -52 -144 -86 -191l-8 5s19 44 19 82c0 26 -33 46 -43 57c-26 31 -24 62 -14 81c18 34 58 48 93 32z" />
    <glyph glyph-name="quotedblbase" unicode="&#x201e;" horiz-adv-x="349" 
d="M125 127c27 -12 39 -33 39 -66c0 -42 -52 -144 -86 -191l-8 5s19 44 19 82c0 26 -33 46 -43 57c-26 31 -24 62 -14 81c18 34 58 48 93 32zM284 127c28 -12 40 -33 40 -66c0 -42 -52 -144 -86 -191l-8 5s19 44 19 82c0 26 -34 46 -44 57c-26 31 -23 62 -14 81
c18 34 58 48 93 32z" />
    <glyph glyph-name="quotedblleft" unicode="&#x201c;" horiz-adv-x="348" 
d="M100 622c0 -26 34 -46 43 -58c27 -30 24 -61 14 -80c-18 -34 -58 -49 -93 -33c-27 13 -39 34 -39 67c0 42 52 144 86 191l8 -6s-19 -43 -19 -81zM303 564c26 -30 23 -61 14 -80c-18 -34 -58 -49 -93 -33c-28 13 -40 34 -40 67c0 42 52 144 86 191l8 -6s-19 -43 -19 -81
c0 -26 34 -46 44 -58z" />
    <glyph glyph-name="quotedblright" unicode="&#x201d;" horiz-adv-x="349" 
d="M125 702c27 -12 39 -33 39 -66c0 -42 -52 -144 -86 -191l-8 5s19 44 19 82c0 26 -33 46 -43 58c-26 30 -24 61 -14 80c18 34 58 48 93 32zM284 702c28 -12 40 -33 40 -66c0 -42 -52 -144 -86 -191l-8 5s19 44 19 82c0 26 -34 46 -44 58c-26 30 -23 61 -14 80
c18 34 58 48 93 32z" />
    <glyph glyph-name="quoteleft" unicode="&#x2018;" horiz-adv-x="189" 
d="M25 517c0 42 52 144 86 191l8 -6s-19 -43 -19 -81c0 -26 33 -45 43 -58c25 -30 24 -61 14 -80c-18 -34 -59 -49 -93 -33c-27 13 -39 34 -39 67z" />
    <glyph glyph-name="quoteright" unicode="&#x2019;" horiz-adv-x="189" 
d="M164 635c0 -42 -52 -144 -86 -191l-8 6s19 43 19 81c0 26 -33 46 -43 58c-25 31 -24 61 -14 80c18 34 59 50 93 33c27 -13 39 -34 39 -67z" />
    <glyph glyph-name="guillemotleft" unicode="&#xab;" horiz-adv-x="554" 
d="M330 459l-212 -228l212 -231h-90l-215 231l215 228h90zM529 459l-212 -228l212 -231h-90l-215 231l215 228h90z" />
    <glyph glyph-name="guillemotright" unicode="&#xbb;" horiz-adv-x="554" 
d="M115 459l215 -228l-215 -231h-90l212 231l-212 228h90zM314 459l215 -228l-215 -231h-90l212 231l-212 228h90z" />
    <glyph glyph-name="guilsinglleft" unicode="&#x2039;" horiz-adv-x="355" 
d="M25 231l215 228h90l-212 -228l212 -231h-90z" />
    <glyph glyph-name="guilsinglright" unicode="&#x203a;" horiz-adv-x="355" 
d="M115 459l215 -228l-215 -231h-90l212 231l-212 228h90z" />
    <glyph glyph-name="quotedbl" unicode="&#x22;" horiz-adv-x="279" 
d="M25 683h94l-10 -224h-74zM160 683h94l-10 -224h-74z" />
    <glyph glyph-name="quotesingle" unicode="'" horiz-adv-x="144" 
d="M25 683h94l-10 -224h-74z" />
    <glyph glyph-name="space" unicode=" " horiz-adv-x="200" 
 />
    <glyph glyph-name="cent" unicode="&#xa2;" horiz-adv-x="502" 
d="M423 161l9 -8c-33 -33 -103 -57 -160 -57h-4l-14 -58h-36l13 61c-99 18 -161 106 -161 242c0 153 77 246 202 246c21 0 48 -5 73 -11l16 69h36l-19 -81c25 -11 41 -21 53 -34l-8 -8c-12 12 -27 20 -49 27l-100 -428c5 -2 10 -2 15 -2c53 0 110 18 134 42zM242 139l99 419
c-14 3 -32 5 -52 5c-63 0 -101 -87 -101 -222c0 -93 19 -168 54 -202z" />
    <glyph glyph-name="currency" unicode="&#xa4;" horiz-adv-x="602" 
d="M514 322c0 -49 -16 -96 -46 -133l64 -63l-34 -34l-64 63c-38 -30 -84 -46 -133 -46s-96 16 -134 46l-63 -63l-34 34l64 63c-30 37 -47 85 -47 133c0 49 16 95 47 134l-64 63l34 34l64 -63c38 31 86 46 133 46c49 0 95 -16 133 -46l64 63l34 -34l-64 -63
c30 -38 46 -84 46 -134zM439 322c0 81 -65 139 -138 139c-81 0 -139 -67 -139 -139c0 -83 68 -138 139 -138c83 0 138 68 138 138z" />
    <glyph glyph-name="dollar" unicode="$" horiz-adv-x="548" 
d="M72 146l15 7c35 -40 91 -67 147 -67l19 209c-4 3 -18 9 -23 12c-67 34 -160 84 -160 174c0 86 74 139 197 138h15l6 64h33l-6 -67c65 -8 110 -36 141 -79l-15 -12c-32 38 -62 64 -128 71l-20 -223c121 -69 184 -96 184 -175c0 -98 -116 -134 -212 -134l-5 -64h-34l6 65
c-73 6 -130 35 -160 81zM180 501c0 -45 27 -80 81 -113l19 208c-59 -6 -100 -43 -100 -95zM266 87h1c62 7 92 34 92 84c0 40 -19 85 -75 111z" />
    <glyph glyph-name="Euro" unicode="&#x20ac;" horiz-adv-x="668" 
d="M70 267v30h80c-2 18 -3 38 -3 60c0 6 0 11 1 13h-78v30h79c13 198 113 314 271 314c66 0 127 -28 177 -82l-11 -12c-40 41 -86 60 -143 60c-90 0 -168 -122 -182 -280h263v-30h-265c0 -2 -1 -12 -1 -19c0 -20 1 -36 3 -54h263v-30h-259c21 -139 92 -233 178 -233
c57 0 103 19 143 60l11 -12c-50 -54 -111 -82 -177 -82c-144 0 -240 96 -266 267h-84z" />
    <glyph glyph-name="florin" unicode="&#x192;" horiz-adv-x="477" 
d="M14 23c0 0 28 -3 41 -3c48 0 75 48 91 157l42 282h-48v16h50l7 46c23 156 139 177 185 177c32 0 62 -4 85 -12l-4 -10h-1s-26 3 -39 3c-57 0 -106 -65 -120 -158l-6 -46h106v-16h-109l-40 -282c-23 -156 -141 -177 -189 -177c-26 0 -39 5 -54 13z" />
    <glyph glyph-name="uni20BA" unicode="&#x20ba;" horiz-adv-x="640" 
d="M70 187v62l59 34v109l-59 -35v63l59 34v244h109v-181l183 106v-63l-183 -106v-109l183 106v-63l-183 -105v-206c136 0 209 55 257 176l66 -30c-49 -148 -176 -223 -323 -223h-109v221z" />
    <glyph glyph-name="uni20BD" unicode="&#x20bd;" horiz-adv-x="641" 
d="M70 163v24h65v69h-65v24h65v403h108c203 0 328 -17 328 -207c0 -143 -115 -220 -328 -220v-69h209v-24h-209v-163h-108v163h-65zM243 280c39 0 209 14 209 196c0 139 -56 188 -209 188v-384z" />
    <glyph glyph-name="sterling" unicode="&#xa3;" horiz-adv-x="584" 
d="M421 72c34 0 64 12 85 33l7 -4c-12 -46 -58 -119 -124 -119c-38 0 -65 10 -109 40c-24 16 -38 23 -52 23c-79 0 -104 -28 -123 -45l-35 42c28 56 121 103 106 224h-106v55h81c-35 65 -67 80 -67 166c0 89 65 209 199 209c85 0 161 -42 195 -114l-15 -8
c-26 57 -90 89 -157 76c-61 -12 -101 -70 -101 -163c0 -56 30 -119 47 -166h151v-55h-140c0 -64 -33 -114 -102 -183c65 35 86 43 104 43c27 0 49 -11 78 -27c33 -18 57 -27 78 -27z" />
    <glyph glyph-name="yen" unicode="&#xa5;" horiz-adv-x="686" 
d="M396 348h154v-30h-157v-73h157v-30h-157v-215h-96v215h-162v30h162v73h-162v30h144l-209 335h126l184 -296l193 296h43z" />
    <glyph glyph-name="uni2219" unicode="&#x2219;" horiz-adv-x="280" 
d="M140 160c-39 0 -70 30 -70 70c0 39 31 69 70 69c38 0 69 -30 69 -69s-31 -70 -69 -70z" />
    <glyph glyph-name="uni2215" unicode="&#x2215;" horiz-adv-x="484" 
d="M414 683l-261 -683h-83l260 683h84z" />
    <glyph glyph-name="plus" unicode="+" horiz-adv-x="600" 
d="M529 191h-191v-191h-77v191h-191v77h191v191h77v-191h191v-77z" />
    <glyph glyph-name="minus" unicode="&#x2212;" horiz-adv-x="600" 
d="M529 191h-459v77h459v-77z" />
    <glyph glyph-name="multiply" unicode="&#xd7;" horiz-adv-x="506" 
d="M291 230l145 -145l-39 -38l-144 144l-145 -144l-38 38l144 145l-144 144l38 38l145 -144l144 144l39 -38z" />
    <glyph glyph-name="divide" unicode="&#xf7;" horiz-adv-x="600" 
d="M300 320c-39 0 -70 30 -70 69c0 40 31 70 70 70s69 -30 69 -70c0 -39 -30 -69 -69 -69zM529 191h-459v77h459v-77zM300 0c-39 0 -70 30 -70 70c0 39 31 69 70 69s69 -30 69 -69c0 -40 -30 -70 -69 -70z" />
    <glyph glyph-name="equal" unicode="=" horiz-adv-x="543" 
d="M70 300v77h402v-77h-402zM70 82v77h402v-77h-402z" />
    <glyph glyph-name="notequal" unicode="&#x2260;" horiz-adv-x="543" 
d="M311 300l-44 -141h205v-77h-229l-26 -82h-35l26 82h-138v77h161l44 141h-205v77h229l26 82h35l-25 -82h137v-77h-161z" />
    <glyph glyph-name="greater" unicode="&#x3e;" horiz-adv-x="360" 
d="M335 231l-215 -231h-90l212 231l-212 228h90z" />
    <glyph glyph-name="less" unicode="&#x3c;" horiz-adv-x="360" 
d="M25 231l215 228h90l-212 -228l212 -231h-90z" />
    <glyph glyph-name="greaterequal" unicode="&#x2265;" horiz-adv-x="360" 
d="M70 0v54h220v-54h-220z" />
    <glyph glyph-name="lessequal" unicode="&#x2264;" horiz-adv-x="360" 
d="M290 300l-142 -70l142 -71v-77l-220 109v77l220 109v-77zM70 0v54h220v-54h-220z" />
    <glyph glyph-name="plusminus" unicode="&#xb1;" horiz-adv-x="600" 
d="M529 388v-77h-191v-191h-77v191h-191v77h191v191h77v-191h191zM70 0v77h459v-77h-459z" />
    <glyph glyph-name="approxequal" unicode="&#x2248;" horiz-adv-x="540" 
d="M70 274v71h-1c27 22 60 32 104 32c30 0 53 -4 97 -16c41 -12 66 -16 97 -16c25 0 53 9 103 32v-71c-27 -22 -59 -32 -103 -32c-35 0 -57 4 -100 17c-26 7 -55 15 -94 15c-25 0 -53 -9 -103 -32zM367 127c25 0 53 9 103 32v-71c-27 -22 -59 -32 -103 -32
c-35 0 -57 4 -101 17c-25 6 -54 15 -93 15c-25 0 -53 -9 -103 -32v71h-1c27 22 60 32 104 32c30 0 53 -4 97 -16c41 -12 66 -16 97 -16z" />
    <glyph glyph-name="asciitilde" unicode="~" horiz-adv-x="436" 
d="M366 380c0 -108 -23 -147 -88 -147c-22 0 -35 7 -62 29c-26 21 -40 28 -58 28c-31 0 -70 -29 -70 -54h-18c0 107 23 146 88 146c21 0 33 -6 60 -28s41 -29 60 -29c31 0 70 29 70 55h18z" />
    <glyph glyph-name="logicalnot" unicode="&#xac;" horiz-adv-x="550" 
d="M479 459v-229h-60v169h-349v60h409z" />
    <glyph glyph-name="infinity" unicode="&#x221e;" horiz-adv-x="676" 
d="M471 377c83 0 134 -56 134 -147s-51 -148 -134 -148c-44 0 -89 39 -133 112c-43 -73 -90 -112 -134 -112c-83 0 -134 57 -134 148s51 147 134 147c44 0 90 -38 134 -111c43 73 89 111 133 111zM223 124c43 0 95 106 95 106s-52 105 -95 105c-42 0 -72 -44 -72 -105
s30 -106 72 -106zM453 124c41 0 71 45 71 106c0 60 -30 105 -71 105c-43 0 -96 -105 -96 -105s53 -106 96 -106z" />
    <glyph glyph-name="emptyset" unicode="&#x2205;" horiz-adv-x="665" 
d="M629 577l-80 -88c49 -53 80 -124 80 -202c0 -164 -132 -297 -296 -297c-70 0 -134 24 -184 64l-59 -64h-54l83 91c-51 53 -83 126 -83 206c0 163 133 296 297 296c71 0 136 -25 186 -66l56 60h54zM89 287c0 -65 25 -123 66 -167l329 357c-42 33 -94 53 -151 53
c-135 0 -244 -109 -244 -243zM576 287c0 62 -24 120 -63 163l-328 -357c41 -31 92 -50 148 -50c135 0 243 109 243 244z" />
    <glyph glyph-name="integral" unicode="&#x222b;" horiz-adv-x="533" 
d="M212 521c0 156 115 177 163 177c32 0 65 -4 88 -12l-3 -10s-28 3 -41 3c-58 0 -98 -66 -98 -158v-578c0 -156 -115 -177 -163 -177c-32 0 -65 4 -88 12l3 10s28 -3 41 -3c58 0 98 66 98 158v578z" />
    <glyph glyph-name="uni2206" unicode="&#x2206;" horiz-adv-x="825" 
d="M755 0h-649l262 683h119zM604 32l-224 592l-224 -592h448z" />
    <glyph glyph-name="product" unicode="&#x220f;" horiz-adv-x="628" 
d="M558 683v-683h-109v660h-271v-660h-108v683h488z" />
    <glyph glyph-name="summation" unicode="&#x2211;" horiz-adv-x="563" 
d="M493 664h-306l191 -440l-191 -440h306v-19h-423l199 459l-199 458h423v-18z" />
    <glyph glyph-name="radical" unicode="&#x221a;" horiz-adv-x="608" 
d="M400 0h-126l-76 259h-128v19h185l66 -218l125 623h92z" />
    <glyph glyph-name="uni00B5" unicode="&#xb5;" horiz-adv-x="592" 
d="M459 119c0 -94 24 -122 63 -122v-13c-32 0 -63 9 -91 28c-16 -19 -40 -28 -75 -28c-61 0 -115 39 -183 133v-352h-103v694h103v-330c52 -51 110 -89 138 -89c33 0 45 23 45 77v342h103v-340z" />
    <glyph glyph-name="partialdiff" unicode="&#x2202;" horiz-adv-x="609" 
d="M320 474c105 5 248 -54 214 -190c-19 -96 -25 -125 -28 -143c-17 -105 -100 -157 -240 -157c-83 0 -209 34 -195 141c21 100 140 146 229 141c57 -3 89 -10 117 -27l6 33c26 131 -13 179 -137 179c-52 -3 -88 -13 -114 -34c-1 1 -3 3 -6 5h2l-3 2c-1 0 2 1 2 1h-2
c43 31 94 46 155 49zM172 417h-1h1zM411 208c1 7 3 16 4 21h-1c-24 16 -56 24 -100 24c-62 0 -114 -52 -124 -128c-9 -66 35 -130 92 -128c53 2 92 60 112 133c6 22 8 38 17 78z" />
    <glyph glyph-name="percent" unicode="%" horiz-adv-x="897" 
d="M536 683h84l-260 -683h-84zM384 475c0 -108 -61 -177 -157 -179c-96 2 -157 71 -157 179c0 107 61 177 157 178c96 -1 157 -71 157 -178zM227 313c40 4 69 75 69 162s-29 158 -69 161c-40 -3 -69 -74 -69 -161s28 -158 69 -162zM670 382c96 -1 157 -71 157 -178
c0 -108 -61 -177 -158 -179c-96 2 -156 71 -156 179s61 177 157 178zM670 42c40 3 69 76 69 162s-29 158 -69 161h-1c-39 -3 -68 -75 -68 -161c0 -87 28 -159 68 -162h1z" />
    <glyph glyph-name="perthousand" unicode="&#x2030;" horiz-adv-x="1265" 
d="M536 683h84l-260 -683h-84zM384 475c0 -108 -61 -177 -157 -179c-96 2 -157 71 -157 179c0 107 61 177 157 178c96 -1 157 -71 157 -178zM227 313c40 4 69 75 69 162s-29 158 -69 161c-40 -3 -69 -74 -69 -161s28 -158 69 -162zM670 382c96 -1 157 -71 157 -178
c0 -108 -61 -177 -158 -179c-96 2 -156 71 -156 179s61 177 157 178zM1038 382c96 -1 157 -71 157 -178c0 -108 -61 -177 -157 -179c-97 2 -157 71 -157 179s61 177 157 178zM670 42c40 3 69 76 69 162s-29 158 -69 161h-1c-39 -3 -68 -75 -68 -161c0 -87 28 -159 68 -162h1
zM1038 42c40 3 69 76 69 162s-29 158 -69 161h-1c-39 -3 -68 -75 -68 -161c0 -87 28 -159 68 -162h1z" />
    <glyph glyph-name="lozenge" unicode="&#x25ca;" horiz-adv-x="598" 
d="M527 341l-183 -341h-91l-183 341l183 342h91zM436 341l-137 257l-137 -257l137 -255z" />
    <glyph glyph-name="at" unicode="@" horiz-adv-x="1071" 
d="M554 698c289 0 474 -157 474 -389c0 -186 -73 -310 -232 -310c-126 0 -137 110 -142 150c-14 -35 -42 -113 -159 -113c-86 0 -219 60 -201 219c22 197 207 219 251 219c71 0 114 -53 125 -127l15 112h94l-31 -250c-8 -62 -23 -199 57 -199c62 0 106 132 106 299
c0 191 -142 367 -357 367c-201 0 -388 -186 -388 -445c0 -186 113 -444 395 -444c113 0 264 36 348 97l12 -17h-1c-95 -66 -242 -102 -359 -102c-278 0 -518 157 -518 466c0 313 239 467 511 467zM499 65c92 0 146 60 160 186v7c9 100 -27 186 -117 186
c-69 0 -119 -94 -130 -182c-12 -87 -8 -197 87 -197z" />
    <glyph glyph-name="ampersand" unicode="&#x26;" horiz-adv-x="661" 
d="M43 160c0 81 52 157 149 221c-42 65 -62 122 -62 169c0 102 74 148 156 148c100 0 150 -46 150 -131c0 -70 -49 -129 -139 -169c83 -110 127 -166 190 -242c20 41 30 86 30 133h26c0 -53 -13 -111 -35 -157h-1l110 -132l-123 -1s-14 17 -41 52c-46 -46 -102 -68 -167 -68
c-136 0 -243 64 -243 177zM223 563c0 -36 17 -83 52 -134c53 39 75 79 75 138c0 63 -27 113 -64 113c-38 0 -63 -47 -63 -117zM158 186c0 -76 41 -163 158 -163c43 0 83 19 116 53c-66 82 -184 227 -209 260c-45 -47 -65 -94 -65 -150z" />
    <glyph glyph-name="paragraph" unicode="&#xb6;" horiz-adv-x="540" 
d="M470 683v-847h-90v822h-61v-822h-90v528c-87 -1 -159 72 -159 159c0 88 71 160 159 160h241z" />
    <glyph glyph-name="section" unicode="&#xa7;" horiz-adv-x="545" 
d="M58 -139l14 9c33 -50 84 -80 135 -80c76 0 112 32 112 100c0 54 -39 109 -117 160c-61 40 -146 98 -146 202c0 78 41 133 111 153c-24 31 -42 69 -42 116c0 100 67 162 179 162c84 0 140 -32 172 -96l-14 -8c-31 50 -78 78 -134 78c-59 0 -103 -48 -103 -112
c0 -76 55 -115 115 -157s155 -118 155 -198c0 -87 -62 -132 -131 -148c35 -36 62 -78 62 -121c0 -115 -108 -156 -196 -156c-78 0 -141 35 -172 96zM156 276c0 -76 55 -116 115 -157c19 -14 42 -31 65 -50c35 14 52 43 52 90c0 54 -39 109 -117 160c-22 14 -47 31 -70 51
c-27 -20 -45 -54 -45 -94z" />
    <glyph glyph-name="copyright" unicode="&#xa9;" horiz-adv-x="823" 
d="M653 583c133 -134 133 -350 0 -483c-65 -65 -151 -100 -242 -100s-176 35 -241 100c-134 133 -134 349 0 483c65 65 150 100 241 100s177 -35 242 -100zM605 148c51 51 80 121 80 193c0 151 -121 274 -274 274c-75 0 -143 -29 -193 -80c-107 -106 -107 -281 0 -387
c50 -51 118 -80 193 -80s142 28 194 80zM411 529c51 0 98 -19 133 -55l-51 -44c-23 21 -51 32 -82 32c-67 0 -120 -53 -120 -121c0 -67 53 -120 120 -120c33 0 62 12 85 35l48 -47c-35 -36 -83 -56 -133 -56c-103 0 -188 85 -188 188c0 104 84 188 188 188z" />
    <glyph glyph-name="registered" unicode="&#xae;" horiz-adv-x="606" 
d="M303 683c128 0 232 -104 232 -232c0 -129 -104 -233 -232 -233c-129 0 -233 104 -233 233c0 128 104 232 233 232zM303 261c105 0 189 85 189 190c0 104 -84 189 -189 189s-190 -85 -190 -189c0 -105 85 -190 190 -190zM389 496c0 -40 -20 -68 -53 -74l47 -91h-44l-48 94
h-32v-94h-43v239h109c36 0 64 -32 64 -74zM325 464c16 0 21 13 21 32s-6 31 -21 31h-66v-63h66z" />
    <glyph glyph-name="trademark" unicode="&#x2122;" horiz-adv-x="522" 
d="M70 691h164v-15h-61v-201h-41v201h-62v15zM451 691v-216h-41v166l-49 -166h-44l-48 165v-165h-17v216h44l55 -193l56 193h44z" />
    <glyph glyph-name="degree" unicode="&#xb0;" horiz-adv-x="285" 
d="M142 683c40 0 73 -31 73 -72s-33 -73 -73 -73s-72 32 -72 73s32 72 72 72zM142 576c21 0 35 14 35 35s-14 35 -35 35c-20 0 -34 -14 -34 -35s14 -35 34 -35z" />
    <glyph glyph-name="bar" unicode="|" horiz-adv-x="232" 
d="M70 -226v917h92v-917h-92z" />
    <glyph glyph-name="brokenbar" unicode="&#xa6;" horiz-adv-x="225" 
d="M70 308v383h84v-383h-84zM70 -226v382h84v-382h-84z" />
    <glyph glyph-name="dagger" unicode="&#x2020;" horiz-adv-x="470" 
d="M399 493h-140v-279h-49v279h-140v49h140v141h49v-141h140v-49z" />
    <glyph glyph-name="uni2113" unicode="&#x2113;" horiz-adv-x="517" 
d="M276 312l-24 -148c-11 -107 -1 -147 41 -161c14 -4 50 0 81 10l3 -13c-24 -10 -77 -16 -89 -16c-97 0 -144 47 -144 134c0 29 9 80 14 109c-22 -18 -58 -42 -82 -55l-8 11c21 15 93 75 94 76c13 83 24 168 36 253c13 92 68 184 169 186c58 1 89 -59 77 -145
c-11 -81 -66 -158 -168 -241zM283 368c63 65 101 125 111 186c10 60 3 102 -32 102c-41 0 -68 -218 -79 -288z" />
    <glyph glyph-name="daggerdbl" unicode="&#x2021;" horiz-adv-x="470" 
d="M259 493v-230h140v-49h-140v-116h-49v116h-140v49h140v230h-140v49h140v141h49v-141h140v-49h-140z" />
    <glyph glyph-name="estimated" unicode="&#x212e;" horiz-adv-x="544" 
d="M474 221h-296v-192c34 -20 66 -29 99 -29c80 0 113 29 136 50l8 -8c-33 -37 -89 -58 -149 -58c-138 0 -202 110 -202 245c0 161 83 245 202 245c110 0 198 -100 202 -237v-16zM178 432v-173h187v165c-28 23 -60 35 -93 35c-34 0 -67 -10 -93 -27h-1z" />
    <glyph glyph-name="asciicircum" unicode="^" horiz-adv-x="435" 
d="M288 484l-71 135l-71 -135h-76l109 208h77l109 -208h-77z" />
    <glyph glyph-name="ampersand.alt1" unicode="&#xf007;" horiz-adv-x="643" 
d="M566 19c12 0 25 1 33 3v-12c-15 -10 -29 -13 -56 -13c-25 0 -57 13 -96 42c-43 -37 -96 -55 -161 -55c-151 0 -243 67 -243 177c0 77 48 150 140 215c-34 70 -53 130 -53 173c0 97 55 150 156 150c100 0 150 -44 150 -131c0 -124 -142 -164 -159 -181
c18 -36 37 -72 59 -108c42 -69 85 -130 118 -172c35 50 56 118 56 183h33c0 -84 -23 -162 -63 -215c31 -35 60 -56 86 -56zM286 681c-38 0 -63 -54 -63 -124c0 -35 13 -80 38 -135c65 44 89 81 89 146c0 63 -27 113 -64 113zM316 24c36 0 69 13 101 40
c-53 46 -117 118 -161 185c-17 26 -31 49 -45 74c-36 -42 -53 -86 -53 -136c0 -76 41 -163 158 -163z" />
    <glyph glyph-name="uni02C9" unicode="&#x2c9;" horiz-adv-x="402" 
d="M70 0v54h262v-54h-262z" />
    <glyph glyph-name="uni0308" unicode="&#x308;" 
d="M-420 573c-33 0 -60 26 -60 59s27 59 60 59s59 -26 59 -59s-26 -59 -59 -59zM-180 573c-33 0 -59 26 -59 59s26 59 59 59s60 -26 60 -59s-27 -59 -60 -59z" />
    <glyph glyph-name="uni0307" unicode="&#x307;" 
d="M-301 573c-33 0 -59 26 -59 59s26 59 59 59s60 -26 60 -59s-27 -59 -60 -59z" />
    <glyph glyph-name="gravecomb" unicode="&#x300;" 
d="M-278 700c0 -40 17 -87 54 -114l-13 -17c-77 24 -116 72 -139 114v17h98z" />
    <glyph glyph-name="acutecomb" unicode="&#x301;" 
d="M-321 700h97v-17c-30 -56 -76 -95 -138 -115l-13 18c33 24 54 68 54 114z" />
    <glyph glyph-name="uni030B" unicode="&#x30b;" 
d="M-187 664c-30 -62 -76 -104 -138 -126l-14 19c34 28 55 76 55 126h97v-19zM-50 683v-19c-30 -62 -76 -104 -138 -126l-14 19c34 27 55 75 55 126h97z" />
    <glyph glyph-name="uni0302" unicode="&#x302;" 
d="M-454 550c72 37 116 127 118 133h72c2 -6 46 -96 118 -133l-6 -12c-62 13 -109 36 -148 71c-39 -35 -86 -58 -148 -71z" />
    <glyph glyph-name="uni030C" unicode="&#x30c;" 
d="M-262 548h-74l-4 2c-9 18 -40 93 -114 131l6 12c62 -13 109 -36 148 -71c39 35 86 58 148 71l6 -12c-66 -34 -98 -97 -111 -123z" />
    <glyph glyph-name="uni0306" unicode="&#x306;" 
d="M-309 689l9 4c23 -36 77 -66 119 -66s96 30 119 66l9 -4l3 -4c-3 -20 -22 -128 -131 -128s-128 108 -131 128z" />
    <glyph glyph-name="uni030A" unicode="&#x30a;" 
d="M-299 702c40 0 72 -32 72 -72s-32 -73 -72 -73s-73 33 -73 73s33 72 73 72zM-299 583c25 0 46 21 46 47c0 25 -21 46 -46 46s-46 -21 -46 -46c0 -26 20 -47 46 -47z" />
    <glyph glyph-name="tildecomb" unicode="&#x303;" 
d="M-169 690c0 -97 -20 -132 -77 -132c-23 0 -40 14 -55 27c-16 13 -30 25 -52 25c-36 0 -62 -21 -62 -49h-16c0 96 21 132 78 132c22 0 38 -13 54 -26s31 -26 53 -26c36 0 61 21 61 49h16z" />
    <glyph glyph-name="uni0304" unicode="&#x304;" 
d="M-50 629h-247v54h247v-54z" />
    <glyph glyph-name="uni0312" unicode="&#x312;" 
d="M-188 509c1 41 52 144 86 191l6 -4c-12 -21 -19 -53 -17 -84c1 -19 18 -35 31 -47c26 -19 42 -55 26 -90c-16 -34 -57 -49 -93 -33c-27 12 -40 34 -39 67z" />
    <glyph glyph-name="uni0326" unicode="&#x326;" 
d="M-50 -131c-1 -41 -52 -144 -86 -191l-6 4c12 21 18 53 17 84c-1 27 -35 49 -43 57c-21 26 -26 54 -14 80c16 34 57 49 93 33c27 -12 40 -34 39 -67z" />
    <glyph glyph-name="uni0327" unicode="&#x327;" 
d="M-223 -149c11 -12 31 -33 56 -33c40 0 62 27 62 73c0 49 -37 105 -49 123l9 5c22 -15 95 -70 95 -151c0 -60 -34 -94 -96 -94c-52 0 -77 54 -85 73z" />
    <glyph glyph-name="uni0328" unicode="&#x328;" 
d="M-60 -149l8 -4c-8 -19 -33 -73 -85 -73c-62 0 -96 34 -96 94c0 81 73 136 95 151l9 -5c-12 -18 -49 -74 -49 -123c0 -46 22 -73 62 -73c25 0 45 21 56 33z" />
    <glyph glyph-name="uni0335" unicode="&#x335;" 
d="M-411 236h361v-26h-361v26z" />
    <glyph glyph-name="uni0336" unicode="&#x336;" 
d="M-589 236h539v-26h-539v26z" />
    <glyph glyph-name="uni0337" unicode="&#x337;" 
d="M-131 459l18 -16l-365 -443l-17 17z" />
    <glyph glyph-name="uni0338" unicode="&#x338;" 
d="M-51 692h41l-409 -692h-41z" />
    <glyph glyph-name="acute" unicode="&#xb4;" horiz-adv-x="310" 
d="M167 683c0 -41 17 -87 55 -114l-14 -18c-77 25 -116 73 -138 115v17h97z" />
    <glyph glyph-name="breve" unicode="&#x2d8;" horiz-adv-x="402" 
d="M332 131c0 0 -11 -131 -131 -131s-131 131 -131 131l12 5s26 -66 119 -66c92 0 118 66 118 66z" />
    <glyph glyph-name="caron" unicode="&#x2c7;" horiz-adv-x="448" 
d="M377 133c-77 -40 -108 -121 -115 -133h-77c-7 12 -37 93 -115 133l6 12c67 -14 113 -39 148 -71c35 32 80 57 147 71z" />
    <glyph glyph-name="cedilla" unicode="&#xb8;" horiz-adv-x="285" 
d="M150 32c139 -49 25 -232 -80 -109c2 2 3 5 5 7c71 -41 114 68 66 102h9z" />
    <glyph glyph-name="circumflex" unicode="&#x2c6;" horiz-adv-x="448" 
d="M262 700c7 -12 38 -93 115 -133l-6 -12c-67 14 -112 39 -147 71c-35 -32 -81 -57 -148 -71l-6 12c78 40 108 121 115 133h77z" />
    <glyph glyph-name="dieresis" unicode="&#xa8;" horiz-adv-x="600" 
d="M180 573c-33 0 -60 26 -60 59s27 59 60 59s59 -26 59 -59s-26 -59 -59 -59zM420 573c-33 0 -59 26 -59 59s26 59 59 59s60 -26 60 -59s-27 -59 -60 -59z" />
    <glyph glyph-name="dotaccent" unicode="&#x2d9;" horiz-adv-x="600" 
d="M299 573c-33 0 -59 26 -59 59s26 59 59 59s60 -26 60 -59s-27 -59 -60 -59z" />
    <glyph glyph-name="grave" unicode="`" horiz-adv-x="292" 
d="M167 683c0 -41 17 -87 55 -114l-14 -18c-77 25 -116 73 -138 115v17h97z" />
    <glyph glyph-name="hungarumlaut" unicode="&#x2dd;" horiz-adv-x="430" 
d="M222 664c-22 -46 -61 -99 -138 -126l-14 19c37 30 55 81 55 126h97v-19zM359 683v-19c-22 -46 -61 -99 -138 -126l-14 19c38 30 55 81 55 126h97z" />
    <glyph glyph-name="macron" unicode="&#xaf;" horiz-adv-x="387" 
d="M317 629h-247v54h247v-54z" />
    <glyph glyph-name="ogonek" unicode="&#x2db;" horiz-adv-x="323" 
d="M253 -168c-6 -14 -38 -77 -87 -77c-76 0 -96 51 -96 95c0 84 83 143 94 150h14c-5 -7 -53 -73 -53 -127c0 -47 22 -73 62 -73c28 0 49 25 59 36z" />
    <glyph glyph-name="ring" unicode="&#x2da;" horiz-adv-x="285" 
d="M142 145c41 0 73 -33 73 -73s-32 -72 -73 -72c-40 0 -72 32 -72 72s32 73 72 73zM142 26c26 0 47 21 47 46c0 26 -21 47 -47 47c-25 0 -46 -21 -46 -47c0 -25 21 -46 46 -46z" />
    <glyph glyph-name="tilde" unicode="&#x2dc;" horiz-adv-x="402" 
d="M332 690c0 -76 -10 -131 -78 -131c-45 0 -63 52 -106 52c-36 0 -62 -21 -62 -50h-16c0 76 10 132 78 132c43 0 63 -52 106 -52c36 0 62 21 62 49h16z" />
    <glyph glyph-name="uni03060301" 
d="M-441 934h97v-17c-30 -56 -76 -95 -138 -115l-13 18c33 24 54 68 54 114zM-547 689l9 4c23 -36 77 -66 119 -66s96 30 119 66l9 -4l3 -4c-3 -20 -22 -128 -131 -128s-128 108 -131 128z" />
    <glyph glyph-name="uni03060300" 
d="M-397 934c0 -40 17 -87 54 -114l-13 -17c-77 24 -116 72 -139 114v17h98zM-547 689l9 4c23 -36 77 -66 119 -66s96 30 119 66l9 -4l3 -4c-3 -20 -22 -128 -131 -128s-128 108 -131 128z" />
    <glyph glyph-name="uni03060303" 
d="M-288 924c0 -97 -20 -132 -77 -132c-23 0 -40 14 -55 27c-16 13 -30 25 -52 25c-36 0 -62 -21 -62 -49h-16c0 96 21 132 78 132c22 0 38 -13 54 -26s31 -26 53 -26c36 0 61 21 61 49h16zM-547 689l9 4c23 -36 77 -66 119 -66s96 30 119 66l9 -4l3 -4
c-3 -20 -22 -128 -131 -128s-128 108 -131 128z" />
    <glyph glyph-name="uni03020301" 
d="M-322 941h97v-17c-30 -56 -76 -95 -138 -115l-13 18c33 24 54 68 54 114zM-454 550c72 37 116 127 118 133h72c2 -6 46 -96 118 -133l-6 -12c-62 13 -109 36 -148 71c-39 -35 -86 -58 -148 -71z" />
    <glyph glyph-name="uni03020300" 
d="M-278 941c0 -40 17 -87 54 -114l-13 -17c-77 24 -116 72 -139 114v17h98zM-454 550c72 37 116 127 118 133h72c2 -6 46 -96 118 -133l-6 -12c-62 13 -109 36 -148 71c-39 -35 -86 -58 -148 -71z" />
    <glyph glyph-name="uni03020303" 
d="M-169 931c0 -97 -20 -132 -77 -132c-23 0 -40 14 -55 27c-16 13 -30 25 -52 25c-36 0 -62 -21 -62 -49h-16c0 96 21 132 78 132c22 0 38 -13 54 -26s31 -26 53 -26c36 0 61 21 61 49h16zM-454 550c72 37 116 127 118 133h72c2 -6 46 -96 118 -133l-6 -12
c-62 13 -109 36 -148 71c-39 -35 -86 -58 -148 -71z" />
    </font>
</defs>
</svg>
